<svg width="131" height="144" viewBox="0 0 131 144" fill="none" xmlns="http://www.w3.org/2000/svg">
<mask id="path-2-inside-1_105_655" fill="white">
<path fill-rule="evenodd" clip-rule="evenodd" d="M116 57C115.22 57 114.454 57.0596 113.706 57.1744C111.472 57.5173 109 56.0108 109 53.7509L109 25C109 23.3431 107.657 22 106 22L77.2491 22C74.9892 22 73.4827 19.5282 73.8256 17.2945C73.9404 16.5464 74 15.7802 74 15C74 6.71573 67.2843 7.59802e-07 59 8.58591e-07C50.7157 2.86473e-06 44 6.71573 44 15C44 15.7802 44.0596 16.5464 44.1744 17.2945C44.5173 19.5282 43.0108 22 40.751 22L12 22C10.3431 22 9 23.3431 9 25L9 53.751C9 56.0108 11.4718 57.5173 13.7055 57.1744C14.4536 57.0596 15.2198 57 16 57C24.2843 57 31 63.7157 31 72C31 80.2843 24.2843 87 16 87C15.2198 87 14.4536 86.9404 13.7055 86.8256C11.4718 86.4827 9 87.9892 9 90.2491L9 119C9 120.657 10.3431 122 12 122L40.751 122C43.0108 122 44.5173 124.472 44.1744 126.706C44.0596 127.454 44 128.22 44 129C44 137.284 50.7157 144 59 144C67.2843 144 74 137.284 74 129C74 128.22 73.9404 127.454 73.8256 126.706C73.4827 124.472 74.9892 122 77.2491 122L106 122C107.657 122 109 120.657 109 119L109 90.2491C109 87.9892 111.472 86.4827 113.706 86.8256C114.454 86.9404 115.22 87 116 87C124.284 87 131 80.2843 131 72C131 63.7157 124.284 57 116 57Z"/>
</mask>
<path fill-rule="evenodd" clip-rule="evenodd" d="M116 57C115.22 57 114.454 57.0596 113.706 57.1744C111.472 57.5173 109 56.0108 109 53.7509L109 25C109 23.3431 107.657 22 106 22L77.2491 22C74.9892 22 73.4827 19.5282 73.8256 17.2945C73.9404 16.5464 74 15.7802 74 15C74 6.71573 67.2843 7.59802e-07 59 8.58591e-07C50.7157 2.86473e-06 44 6.71573 44 15C44 15.7802 44.0596 16.5464 44.1744 17.2945C44.5173 19.5282 43.0108 22 40.751 22L12 22C10.3431 22 9 23.3431 9 25L9 53.751C9 56.0108 11.4718 57.5173 13.7055 57.1744C14.4536 57.0596 15.2198 57 16 57C24.2843 57 31 63.7157 31 72C31 80.2843 24.2843 87 16 87C15.2198 87 14.4536 86.9404 13.7055 86.8256C11.4718 86.4827 9 87.9892 9 90.2491L9 119C9 120.657 10.3431 122 12 122L40.751 122C43.0108 122 44.5173 124.472 44.1744 126.706C44.0596 127.454 44 128.22 44 129C44 137.284 50.7157 144 59 144C67.2843 144 74 137.284 74 129C74 128.22 73.9404 127.454 73.8256 126.706C73.4827 124.472 74.9892 122 77.2491 122L106 122C107.657 122 109 120.657 109 119L109 90.2491C109 87.9892 111.472 86.4827 113.706 86.8256C114.454 86.9404 115.22 87 116 87C124.284 87 131 80.2843 131 72C131 63.7157 124.284 57 116 57Z" fill="black"/>
<path d="M59 8.58591e-07L59 -0.999999L59 -0.999999L59 8.58591e-07ZM113.706 86.8256L113.554 87.814L113.706 86.8256ZM44.1744 126.706L45.1628 126.857L44.1744 126.706ZM9 53.751L10 53.751L9 53.751ZM13.7055 57.1744L13.5538 56.186L13.7055 57.1744ZM9 25L8 25L9 25ZM44.1744 17.2945L45.1628 17.1428L44.1744 17.2945ZM13.7055 86.8256L13.8572 85.8372L13.7055 86.8256ZM113.706 57.1744L113.857 58.1628L113.706 57.1744ZM113.857 58.1628C114.555 58.0557 115.271 58 116 58L116 56C115.169 56 114.352 56.0635 113.554 56.186L113.857 58.1628ZM108 25L108 53.7509L110 53.7509L110 25L108 25ZM77.2491 23L106 23L106 21L77.2491 21L77.2491 23ZM73 15C73 15.7292 72.9443 16.4447 72.8372 17.1428L74.814 17.4462C74.9365 16.6481 75 15.8311 75 15L73 15ZM59 1C66.732 1 73 7.26801 73 15L75 15C75 6.16344 67.8366 -0.999999 59 -0.999999L59 1ZM45 15C45 7.26802 51.268 1 59 1L59 -0.999999C50.1634 -0.999997 43 6.16345 43 15L45 15ZM45.1628 17.1428C45.0557 16.4447 45 15.7292 45 15L43 15C43 15.8311 43.0635 16.6481 43.186 17.4462L45.1628 17.1428ZM12 23L40.751 23L40.751 21L12 21L12 23ZM10 53.751L10 25L8 25L8 53.751L10 53.751ZM13.8572 58.1628C14.5553 58.0557 15.2708 58 16 58L16 56C15.1689 56 14.3519 56.0635 13.5538 56.186L13.8572 58.1628ZM16 58C23.732 58 30 64.268 30 72L32 72C32 63.1634 24.8366 56 16 56L16 58ZM30 72C30 79.732 23.732 86 16 86L16 88C24.8366 88 32 80.8366 32 72L30 72ZM16 86C15.2708 86 14.5553 85.9443 13.8572 85.8372L13.5538 87.814C14.3519 87.9365 15.1689 88 16 88L16 86ZM10 119L10 90.2491L8 90.2491L8 119L10 119ZM40.751 121L12 121L12 123L40.751 123L40.751 121ZM45 129C45 128.271 45.0557 127.555 45.1628 126.857L43.186 126.554C43.0635 127.352 43 128.169 43 129L45 129ZM59 143C51.268 143 45 136.732 45 129L43 129C43 137.837 50.1634 145 59 145L59 143ZM73 129C73 136.732 66.732 143 59 143L59 145C67.8366 145 75 137.837 75 129L73 129ZM72.8372 126.857C72.9443 127.555 73 128.271 73 129L75 129C75 128.169 74.9365 127.352 74.814 126.554L72.8372 126.857ZM106 121L77.2491 121L77.2491 123L106 123L106 121ZM108 90.2491L108 119L110 119L110 90.2491L108 90.2491ZM116 86C115.271 86 114.555 85.9443 113.857 85.8372L113.554 87.814C114.352 87.9365 115.169 88 116 88L116 86ZM130 72C130 79.732 123.732 86 116 86L116 88C124.837 88 132 80.8366 132 72L130 72ZM116 58C123.732 58 130 64.268 130 72L132 72C132 63.1634 124.837 56 116 56L116 58ZM110 90.2491C110 89.516 110.395 88.857 111.081 88.3856C111.776 87.9084 112.697 87.6825 113.554 87.814L113.857 85.8372C112.48 85.6258 111.049 85.9817 109.949 86.737C108.841 87.498 108 88.7222 108 90.2491L110 90.2491ZM40.751 123C41.484 123 42.143 123.395 42.6144 124.081C43.0916 124.776 43.3175 125.697 43.186 126.554L45.1628 126.857C45.3742 125.48 45.0183 124.049 44.263 122.949C43.502 121.841 42.2778 121 40.751 121L40.751 123ZM106 123C108.209 123 110 121.209 110 119L108 119C108 120.105 107.105 121 106 121L106 123ZM8 53.751C8 55.2778 8.84101 56.502 9.94894 57.263C11.0485 58.0183 12.4803 58.3742 13.8572 58.1628L13.5538 56.186C12.697 56.3175 11.776 56.0916 11.0813 55.6144C10.3949 55.143 10 54.484 10 53.751L8 53.751ZM74.814 126.554C74.6825 125.697 74.9084 124.776 75.3856 124.081C75.857 123.395 76.516 123 77.2491 123L77.2491 121C75.7222 121 74.498 121.841 73.737 122.949C72.9817 124.049 72.6258 125.48 72.8372 126.857L74.814 126.554ZM12 21C9.79086 21 8 22.7909 8 25L10 25C10 23.8954 10.8954 23 12 23L12 21ZM8 119C8 121.209 9.79086 123 12 123L12 121C10.8954 121 10 120.105 10 119L8 119ZM77.2491 21C76.516 21 75.8571 20.6051 75.3856 19.9187C74.9084 19.224 74.6825 18.303 74.814 17.4462L72.8372 17.1428C72.6258 18.5197 72.9818 19.9515 73.737 21.0511C74.498 22.159 75.7222 23 77.2491 23L77.2491 21ZM43.186 17.4462C43.3175 18.303 43.0916 19.224 42.6144 19.9187C42.143 20.6051 41.484 21 40.751 21L40.751 23C42.2778 23 43.502 22.159 44.263 21.0511C45.0183 19.9515 45.3742 18.5197 45.1628 17.1428L43.186 17.4462ZM13.8572 85.8372C12.4803 85.6258 11.0485 85.9817 9.94894 86.737C8.84101 87.498 8 88.7222 8 90.2491L10 90.2491C10 89.516 10.3949 88.857 11.0813 88.3856C11.776 87.9084 12.697 87.6825 13.5538 87.814L13.8572 85.8372ZM110 25C110 22.7909 108.209 21 106 21L106 23C107.105 23 108 23.8954 108 25L110 25ZM113.554 56.186C112.697 56.3175 111.776 56.0916 111.081 55.6144C110.395 55.1429 110 54.484 110 53.7509L108 53.7509C108 55.2778 108.841 56.502 109.949 57.263C111.049 58.0182 112.48 58.3742 113.857 58.1628L113.554 56.186Z" fill="black" mask="url(#path-2-inside-1_105_655)"/>
</svg>
