<svg width="131" height="118" viewBox="0 0 131 118" fill="none" xmlns="http://www.w3.org/2000/svg">
<mask id="path-2-inside-1_102_249" fill="white">
<path fill-rule="evenodd" clip-rule="evenodd" d="M17.2945 73.8256C19.5282 73.4827 22 74.9892 22 77.2491L22 106C22 107.657 23.3431 109 25 109H53.7509C56.0108 109 57.5173 106.528 57.1744 104.294C57.0596 103.546 57 102.78 57 102C57 93.7157 63.7157 87 72 87C80.2843 87 87 93.7157 87 102C87 102.78 86.9404 103.546 86.8256 104.294C86.4827 106.528 87.9892 109 90.249 109L119 109C120.657 109 122 107.657 122 106V77.2491C122 74.9892 119.528 73.4827 117.294 73.8256C116.546 73.9404 115.78 74 115 74C106.716 74 100 67.2843 100 59C100 50.7157 106.716 44 115 44C115.78 44 116.546 44.0596 117.294 44.1744C119.528 44.5173 122 43.0108 122 40.751V12C122 10.3431 120.657 9 119 9L25 9C23.3431 9 22 10.3431 22 12L22 40.7509C22 43.0108 19.5282 44.5173 17.2945 44.1744C16.5464 44.0596 15.7802 44 15 44C6.71573 44 0 50.7157 0 59C1.90735e-06 67.2843 6.71573 74 15 74C15.7802 74 16.5464 73.9404 17.2945 73.8256Z"/>
</mask>
<path fill-rule="evenodd" clip-rule="evenodd" d="M17.2945 73.8256C19.5282 73.4827 22 74.9892 22 77.2491L22 106C22 107.657 23.3431 109 25 109H53.7509C56.0108 109 57.5173 106.528 57.1744 104.294C57.0596 103.546 57 102.78 57 102C57 93.7157 63.7157 87 72 87C80.2843 87 87 93.7157 87 102C87 102.78 86.9404 103.546 86.8256 104.294C86.4827 106.528 87.9892 109 90.249 109L119 109C120.657 109 122 107.657 122 106V77.2491C122 74.9892 119.528 73.4827 117.294 73.8256C116.546 73.9404 115.78 74 115 74C106.716 74 100 67.2843 100 59C100 50.7157 106.716 44 115 44C115.78 44 116.546 44.0596 117.294 44.1744C119.528 44.5173 122 43.0108 122 40.751V12C122 10.3431 120.657 9 119 9L25 9C23.3431 9 22 10.3431 22 12L22 40.7509C22 43.0108 19.5282 44.5173 17.2945 44.1744C16.5464 44.0596 15.7802 44 15 44C6.71573 44 0 50.7157 0 59C1.90735e-06 67.2843 6.71573 74 15 74C15.7802 74 16.5464 73.9404 17.2945 73.8256Z" fill="black"/>
<path d="M0 59L-1 59L-1 59L0 59ZM17.2945 44.1744L17.1428 45.1628L17.2945 44.1744ZM17.2945 73.8256L17.1428 72.8372L17.2945 73.8256ZM23 106L23 77.2491H21L21 106H23ZM53.7509 108H25V110H53.7509V108ZM58.1628 104.143C58.0557 103.445 58 102.729 58 102H56C56 102.831 56.0635 103.648 56.186 104.446L58.1628 104.143ZM58 102C58 94.268 64.268 88 72 88V86C63.1634 86 56 93.1634 56 102H58ZM72 88C79.732 88 86 94.268 86 102H88C88 93.1634 80.8366 86 72 86V88ZM86 102C86 102.729 85.9443 103.445 85.8372 104.143L87.814 104.446C87.9365 103.648 88 102.831 88 102H86ZM119 108L90.249 108V110L119 110V108ZM121 77.2491V106H123V77.2491H121ZM115 75C115.831 75 116.648 74.9365 117.446 74.814L117.143 72.8372C116.445 72.9443 115.729 73 115 73V75ZM99 59C99 67.8366 106.163 75 115 75V73C107.268 73 101 66.732 101 59H99ZM115 43C106.163 43 99 50.1634 99 59H101C101 51.268 107.268 45 115 45V43ZM117.446 43.186C116.648 43.0635 115.831 43 115 43V45C115.729 45 116.445 45.0557 117.143 45.1628L117.446 43.186ZM121 12V40.751H123V12H121ZM25 10L119 10V8L25 8V10ZM23 40.7509L23 12H21L21 40.7509H23ZM15 45C15.7292 45 16.4447 45.0557 17.1428 45.1628L17.4462 43.186C16.6481 43.0635 15.8311 43 15 43V45ZM1 59C1 51.268 7.26801 45 15 45V43C6.16344 43 -1 50.1634 -1 59H1ZM15 73C7.26802 73 1 66.732 1 59L-1 59C-0.999998 67.8366 6.16345 75 15 75V73ZM17.1428 72.8372C16.4447 72.9443 15.7292 73 15 73V75C15.8311 75 16.6481 74.9365 17.4462 74.814L17.1428 72.8372ZM21 40.7509C21 41.484 20.6051 42.143 19.9187 42.6144C19.224 43.0916 18.303 43.3175 17.4462 43.186L17.1428 45.1628C18.5197 45.3742 19.9515 45.0183 21.0511 44.263C22.159 43.502 23 42.2778 23 40.7509H21ZM25 8C22.7909 8 21 9.79086 21 12H23C23 10.8954 23.8954 10 25 10V8ZM123 77.2491C123 75.7222 122.159 74.498 121.051 73.737C119.951 72.9817 118.52 72.6258 117.143 72.8372L117.446 74.814C118.303 74.6825 119.224 74.9084 119.919 75.3856C120.605 75.857 121 76.516 121 77.2491H123ZM119 110C121.209 110 123 108.209 123 106H121C121 107.105 120.105 108 119 108V110ZM123 12C123 9.79086 121.209 8 119 8V10C120.105 10 121 10.8954 121 12H123ZM53.7509 110C55.2778 110 56.502 109.159 57.263 108.051C58.0183 106.951 58.3742 105.52 58.1628 104.143L56.186 104.446C56.3175 105.303 56.0916 106.224 55.6144 106.919C55.143 107.605 54.484 108 53.7509 108V110ZM85.8372 104.143C85.6258 105.52 85.9817 106.951 86.737 108.051C87.498 109.159 88.7222 110 90.249 110V108C89.516 108 88.857 107.605 88.3856 106.919C87.9084 106.224 87.6825 105.303 87.814 104.446L85.8372 104.143ZM117.143 45.1628C118.52 45.3742 119.951 45.0183 121.051 44.263C122.159 43.502 123 42.2778 123 40.751H121C121 41.484 120.605 42.143 119.919 42.6144C119.224 43.0916 118.303 43.3175 117.446 43.186L117.143 45.1628ZM23 77.2491C23 75.7222 22.159 74.498 21.0511 73.737C19.9515 72.9817 18.5197 72.6258 17.1428 72.8372L17.4462 74.814C18.303 74.6825 19.224 74.9084 19.9187 75.3856C20.6051 75.857 21 76.516 21 77.2491H23ZM21 106C21 108.209 22.7909 110 25 110V108C23.8954 108 23 107.105 23 106H21Z" fill="black" mask="url(#path-2-inside-1_102_249)"/>
</svg>
