<svg width="131" height="118" viewBox="0 0 131 118" fill="none" xmlns="http://www.w3.org/2000/svg">
<mask id="path-2-inside-1_102_462" fill="white">
<path fill-rule="evenodd" clip-rule="evenodd" d="M109 106C109 107.657 107.657 109 106 109L12 109C10.3431 109 9 107.657 9 106L9 12C9 10.3431 10.3431 9 12 9L40.7509 9C43.0108 9 44.5173 11.4718 44.1744 13.7055C44.0596 14.4536 44 15.2198 44 16C44 24.2843 50.7157 31 59 31C67.2843 31 74 24.2843 74 16C74 15.2198 73.9404 14.4536 73.8256 13.7055C73.4827 11.4718 74.9892 9 77.249 9L106 9C107.657 9 109 10.3431 109 12L109 40.7509C109 43.0108 111.472 44.5173 113.706 44.1744C114.454 44.0596 115.22 44 116 44C124.284 44 131 50.7157 131 59C131 67.2843 124.284 74 116 74C115.22 74 114.454 73.9404 113.706 73.8256C111.472 73.4827 109 74.9892 109 77.249L109 106Z"/>
</mask>
<path fill-rule="evenodd" clip-rule="evenodd" d="M109 106C109 107.657 107.657 109 106 109L12 109C10.3431 109 9 107.657 9 106L9 12C9 10.3431 10.3431 9 12 9L40.7509 9C43.0108 9 44.5173 11.4718 44.1744 13.7055C44.0596 14.4536 44 15.2198 44 16C44 24.2843 50.7157 31 59 31C67.2843 31 74 24.2843 74 16C74 15.2198 73.9404 14.4536 73.8256 13.7055C73.4827 11.4718 74.9892 9 77.249 9L106 9C107.657 9 109 10.3431 109 12L109 40.7509C109 43.0108 111.472 44.5173 113.706 44.1744C114.454 44.0596 115.22 44 116 44C124.284 44 131 50.7157 131 59C131 67.2843 124.284 74 116 74C115.22 74 114.454 73.9404 113.706 73.8256C111.472 73.4827 109 74.9892 109 77.249L109 106Z" fill="black"/>
<path d="M109 40.7509L110 40.7509L109 40.7509ZM106 9L106 10L106 9ZM109 12L108 12L109 12ZM40.7509 9L40.7509 10L40.7509 9ZM44.1744 13.7055L45.1628 13.8572L44.1744 13.7055ZM73.8256 13.7055L72.8372 13.8572L73.8256 13.7055ZM77.249 9L77.249 8L77.249 9ZM12 9L12 8L12 9ZM12 110L106 110L106 108L12 108L12 110ZM8 12L8 106L10 106L10 12L8 12ZM40.7509 8L12 8L12 10L40.7509 10L40.7509 8ZM45 16C45 15.2708 45.0557 14.5553 45.1628 13.8572L43.186 13.5538C43.0635 14.3519 43 15.1689 43 16L45 16ZM59 30C51.268 30 45 23.732 45 16L43 16C43 24.8366 50.1634 32 59 32L59 30ZM73 16C73 23.732 66.732 30 59 30L59 32C67.8366 32 75 24.8366 75 16L73 16ZM72.8372 13.8572C72.9443 14.5553 73 15.2708 73 16L75 16C75 15.1689 74.9365 14.3519 74.814 13.5538L72.8372 13.8572ZM106 8L77.249 8L77.249 10L106 10L106 8ZM110 40.7509L110 12L108 12L108 40.7509L110 40.7509ZM116 43C115.169 43 114.352 43.0635 113.554 43.186L113.857 45.1628C114.555 45.0557 115.271 45 116 45L116 43ZM132 59C132 50.1634 124.837 43 116 43L116 45C123.732 45 130 51.268 130 59L132 59ZM116 75C124.837 75 132 67.8366 132 59L130 59C130 66.732 123.732 73 116 73L116 75ZM113.554 74.814C114.352 74.9365 115.169 75 116 75L116 73C115.271 73 114.555 72.9443 113.857 72.8372L113.554 74.814ZM110 106L110 77.249L108 77.249L108 106L110 106ZM108 40.7509C108 42.2778 108.841 43.502 109.949 44.263C111.049 45.0182 112.48 45.3742 113.857 45.1628L113.554 43.186C112.697 43.3175 111.776 43.0916 111.081 42.6144C110.395 42.143 110 41.484 110 40.7509L108 40.7509ZM106 10C107.105 10 108 10.8954 108 12L110 12C110 9.79086 108.209 8 106 8L106 10ZM40.7509 10C41.484 10 42.143 10.3949 42.6144 11.0813C43.0916 11.776 43.3175 12.697 43.186 13.5538L45.1628 13.8572C45.3742 12.4803 45.0183 11.0485 44.263 9.94894C43.502 8.841 42.2778 8 40.7509 8L40.7509 10ZM74.814 13.5538C74.6825 12.697 74.9084 11.776 75.3856 11.0813C75.857 10.3949 76.516 10 77.249 10L77.249 8C75.7222 8 74.498 8.841 73.737 9.94893C72.9817 11.0485 72.6258 12.4803 72.8372 13.8572L74.814 13.5538ZM113.857 72.8372C112.48 72.6258 111.049 72.9817 109.949 73.737C108.841 74.498 108 75.7222 108 77.249L110 77.249C110 76.516 110.395 75.857 111.081 75.3856C111.776 74.9084 112.697 74.6825 113.554 74.814L113.857 72.8372ZM10 12C10 10.8954 10.8954 10 12 10L12 8C9.79086 8 8 9.79086 8 12L10 12ZM106 110C108.209 110 110 108.209 110 106L108 106C108 107.105 107.105 108 106 108L106 110ZM12 108C10.8954 108 10 107.105 10 106L8 106C8 108.209 9.79086 110 12 110L12 108Z" fill="black" mask="url(#path-2-inside-1_102_462)"/>
</svg>
