<svg width="131" height="118" viewBox="0 0 131 118" fill="none" xmlns="http://www.w3.org/2000/svg">
<mask id="path-2-inside-1_102_726" fill="white">
<path fill-rule="evenodd" clip-rule="evenodd" d="M116 44C115.22 44 114.454 44.0596 113.706 44.1744C111.472 44.5173 109 43.0108 109 40.7509L109 12C109 10.3431 107.657 9 106 9L77.2491 9C74.9892 9 73.4827 11.4718 73.8256 13.7055C73.9404 14.4536 74 15.2198 74 16C74 24.2843 67.2843 31 59 31C50.7157 31 44 24.2843 44 16C44 15.2198 44.0596 14.4536 44.1744 13.7055C44.5173 11.4718 43.0108 9 40.7509 9L12 8.99999C10.3431 8.99999 9 10.3431 9 12L9 40.7509C9 43.0108 11.4718 44.5173 13.7055 44.1744C14.4536 44.0596 15.2198 44 16 44C24.2843 44 31 50.7157 31 59C31 67.2843 24.2843 74 16 74C15.2198 74 14.4536 73.9404 13.7055 73.8256C11.4718 73.4827 9 74.9892 9 77.249L9 106C9 107.657 10.3431 109 12 109L40.7509 109C43.0108 109 44.5173 106.528 44.1744 104.294C44.0596 103.546 44 102.78 44 102C44 93.7157 50.7157 87 59 87C67.2843 87 74 93.7157 74 102C74 102.78 73.9404 103.546 73.8256 104.294C73.4827 106.528 74.9892 109 77.249 109L106 109C107.657 109 109 107.657 109 106L109 77.2491C109 74.9892 111.472 73.4827 113.706 73.8256C114.454 73.9404 115.22 74 116 74C124.284 74 131 67.2843 131 59C131 50.7157 124.284 44 116 44Z"/>
</mask>
<path fill-rule="evenodd" clip-rule="evenodd" d="M116 44C115.22 44 114.454 44.0596 113.706 44.1744C111.472 44.5173 109 43.0108 109 40.7509L109 12C109 10.3431 107.657 9 106 9L77.2491 9C74.9892 9 73.4827 11.4718 73.8256 13.7055C73.9404 14.4536 74 15.2198 74 16C74 24.2843 67.2843 31 59 31C50.7157 31 44 24.2843 44 16C44 15.2198 44.0596 14.4536 44.1744 13.7055C44.5173 11.4718 43.0108 9 40.7509 9L12 8.99999C10.3431 8.99999 9 10.3431 9 12L9 40.7509C9 43.0108 11.4718 44.5173 13.7055 44.1744C14.4536 44.0596 15.2198 44 16 44C24.2843 44 31 50.7157 31 59C31 67.2843 24.2843 74 16 74C15.2198 74 14.4536 73.9404 13.7055 73.8256C11.4718 73.4827 9 74.9892 9 77.249L9 106C9 107.657 10.3431 109 12 109L40.7509 109C43.0108 109 44.5173 106.528 44.1744 104.294C44.0596 103.546 44 102.78 44 102C44 93.7157 50.7157 87 59 87C67.2843 87 74 93.7157 74 102C74 102.78 73.9404 103.546 73.8256 104.294C73.4827 106.528 74.9892 109 77.249 109L106 109C107.657 109 109 107.657 109 106L109 77.2491C109 74.9892 111.472 73.4827 113.706 73.8256C114.454 73.9404 115.22 74 116 74C124.284 74 131 67.2843 131 59C131 50.7157 124.284 44 116 44Z" fill="black"/>
<path d="M113.706 73.8256L113.857 72.8372L113.706 73.8256ZM13.7055 44.1744L13.5538 43.186L13.7055 44.1744ZM73.8256 104.294L72.8372 104.143L73.8256 104.294ZM73.8256 13.7055L74.814 13.5538L73.8256 13.7055ZM44.1744 13.7055L43.186 13.5538L44.1744 13.7055ZM13.7055 73.8256L13.8572 72.8372L13.7055 73.8256ZM113.706 44.1744L113.554 43.186L113.706 44.1744ZM113.857 45.1628C114.555 45.0557 115.271 45 116 45L116 43C115.169 43 114.352 43.0635 113.554 43.186L113.857 45.1628ZM108 12L108 40.7509L110 40.7509L110 12L108 12ZM77.2491 10L106 10L106 8L77.2491 8L77.2491 10ZM72.8372 13.8572C72.9443 14.5553 73 15.2708 73 16L75 16C75 15.1689 74.9365 14.3519 74.814 13.5538L72.8372 13.8572ZM73 16C73 23.732 66.732 30 59 30L59 32C67.8366 32 75 24.8366 75 16L73 16ZM59 30C51.268 30 45 23.732 45 16L43 16C43 24.8366 50.1634 32 59 32L59 30ZM45 16C45 15.2708 45.0557 14.5553 45.1628 13.8572L43.186 13.5538C43.0635 14.3519 43 15.1689 43 16L45 16ZM12 9.99999L40.7509 10L40.7509 8L12 7.99999L12 9.99999ZM10 40.7509L10 12L8 12L8 40.7509L10 40.7509ZM16 43C15.1689 43 14.3519 43.0635 13.5538 43.186L13.8572 45.1628C14.5553 45.0557 15.2708 45 16 45L16 43ZM32 59C32 50.1634 24.8366 43 16 43L16 45C23.732 45 30 51.268 30 59L32 59ZM16 75C24.8366 75 32 67.8366 32 59L30 59C30 66.732 23.732 73 16 73L16 75ZM13.5538 74.814C14.3519 74.9365 15.1689 75 16 75L16 73C15.2708 73 14.5553 72.9443 13.8572 72.8372L13.5538 74.814ZM10 106L10 77.249L8 77.249L8 106L10 106ZM40.7509 108L12 108L12 110L40.7509 110L40.7509 108ZM43 102C43 102.831 43.0635 103.648 43.186 104.446L45.1628 104.143C45.0557 103.445 45 102.729 45 102L43 102ZM59 86C50.1634 86 43 93.1634 43 102L45 102C45 94.268 51.268 88 59 88L59 86ZM75 102C75 93.1634 67.8366 86 59 86L59 88C66.732 88 73 94.268 73 102L75 102ZM74.814 104.446C74.9365 103.648 75 102.831 75 102L73 102C73 102.729 72.9443 103.445 72.8372 104.143L74.814 104.446ZM106 108L77.249 108L77.249 110L106 110L106 108ZM108 77.2491L108 106L110 106L110 77.2491L108 77.2491ZM116 73C115.271 73 114.555 72.9443 113.857 72.8372L113.554 74.814C114.352 74.9365 115.169 75 116 75L116 73ZM130 59C130 66.732 123.732 73 116 73L116 75C124.837 75 132 67.8366 132 59L130 59ZM116 45C123.732 45 130 51.268 130 59L132 59C132 50.1634 124.837 43 116 43L116 45ZM110 77.2491C110 76.516 110.395 75.857 111.081 75.3856C111.776 74.9084 112.697 74.6825 113.554 74.814L113.857 72.8372C112.48 72.6258 111.049 72.9817 109.949 73.737C108.841 74.498 108 75.7222 108 77.2491L110 77.2491ZM40.7509 110C42.2778 110 43.502 109.159 44.263 108.051C45.0183 106.951 45.3742 105.52 45.1628 104.143L43.186 104.446C43.3175 105.303 43.0916 106.224 42.6144 106.919C42.143 107.605 41.484 108 40.7509 108L40.7509 110ZM106 110C108.209 110 110 108.209 110 106L108 106C108 107.105 107.105 108 106 108L106 110ZM8 40.7509C8 42.2778 8.841 43.502 9.94894 44.263C11.0485 45.0182 12.4803 45.3742 13.8572 45.1628L13.5538 43.186C12.697 43.3175 11.776 43.0916 11.0813 42.6144C10.3949 42.1429 10 41.484 10 40.7509L8 40.7509ZM72.8372 104.143C72.6258 105.52 72.9817 106.951 73.737 108.051C74.498 109.159 75.7222 110 77.249 110L77.249 108C76.516 108 75.857 107.605 75.3856 106.919C74.9084 106.224 74.6825 105.303 74.814 104.446L72.8372 104.143ZM12 7.99999C9.79086 7.99999 8 9.79086 8 12L10 12C10 10.8954 10.8954 9.99999 12 9.99999L12 7.99999ZM8 106C8 108.209 9.79086 110 12 110L12 108C10.8954 108 10 107.105 10 106L8 106ZM77.2491 8C75.7222 8 74.498 8.841 73.737 9.94894C72.9817 11.0485 72.6258 12.4803 72.8372 13.8572L74.814 13.5538C74.6825 12.697 74.9084 11.776 75.3856 11.0813C75.857 10.3949 76.516 10 77.2491 10L77.2491 8ZM45.1628 13.8572C45.3742 12.4803 45.0183 11.0485 44.263 9.94894C43.502 8.841 42.2778 8 40.7509 8L40.7509 10C41.484 10 42.143 10.3949 42.6144 11.0813C43.0916 11.776 43.3175 12.697 43.186 13.5538L45.1628 13.8572ZM13.8572 72.8372C12.4803 72.6258 11.0485 72.9817 9.94893 73.737C8.841 74.498 8 75.7222 8 77.249L10 77.249C10 76.516 10.3949 75.857 11.0813 75.3856C11.776 74.9084 12.697 74.6825 13.5538 74.814L13.8572 72.8372ZM110 12C110 9.79086 108.209 8 106 8L106 10C107.105 10 108 10.8954 108 12L110 12ZM113.554 43.186C112.697 43.3175 111.776 43.0916 111.081 42.6144C110.395 42.1429 110 41.484 110 40.7509L108 40.7509C108 42.2778 108.841 43.502 109.949 44.263C111.049 45.0182 112.48 45.3742 113.857 45.1628L113.554 43.186Z" fill="black" mask="url(#path-2-inside-1_102_726)"/>
</svg>
