<svg width="118" height="118" viewBox="0 0 118 118" fill="none" xmlns="http://www.w3.org/2000/svg">
<mask id="path-2-inside-1_102_465" fill="white">
<path fill-rule="evenodd" clip-rule="evenodd" d="M109 106C109 107.657 107.657 109 106 109L12 109C10.3431 109 9 107.657 9 106L9 12C9 10.3431 10.3431 9 12 9L40.7509 9C43.0108 9 44.5173 11.4718 44.1744 13.7055C44.0596 14.4536 44 15.2198 44 16C44 24.2843 50.7157 31 59 31C67.2843 31 74 24.2843 74 16C74 15.2198 73.9404 14.4536 73.8256 13.7055C73.4827 11.4718 74.9892 9 77.249 9L106 9C107.657 9 109 10.3431 109 12L109 40.7509C109 43.0108 106.528 44.5173 104.294 44.1744C103.546 44.0596 102.78 44 102 44C93.7157 44 87 50.7157 87 59C87 67.2843 93.7157 74 102 74C102.78 74 103.546 73.9404 104.294 73.8256C106.528 73.4827 109 74.9892 109 77.249L109 106Z"/>
</mask>
<path fill-rule="evenodd" clip-rule="evenodd" d="M109 106C109 107.657 107.657 109 106 109L12 109C10.3431 109 9 107.657 9 106L9 12C9 10.3431 10.3431 9 12 9L40.7509 9C43.0108 9 44.5173 11.4718 44.1744 13.7055C44.0596 14.4536 44 15.2198 44 16C44 24.2843 50.7157 31 59 31C67.2843 31 74 24.2843 74 16C74 15.2198 73.9404 14.4536 73.8256 13.7055C73.4827 11.4718 74.9892 9 77.249 9L106 9C107.657 9 109 10.3431 109 12L109 40.7509C109 43.0108 106.528 44.5173 104.294 44.1744C103.546 44.0596 102.78 44 102 44C93.7157 44 87 50.7157 87 59C87 67.2843 93.7157 74 102 74C102.78 74 103.546 73.9404 104.294 73.8256C106.528 73.4827 109 74.9892 109 77.249L109 106Z" fill="black"/>
<path d="M109 12L110 12L109 12ZM40.7509 9L40.7509 10L40.7509 9ZM73.8256 13.7055L72.8372 13.8572L73.8256 13.7055ZM12 9L12 8L12 9ZM12 110L106 110L106 108L12 108L12 110ZM8 12L8 106L10 106L10 12L8 12ZM40.7509 8L12 8L12 10L40.7509 10L40.7509 8ZM45 16C45 15.2708 45.0557 14.5553 45.1628 13.8572L43.186 13.5538C43.0635 14.3519 43 15.1689 43 16L45 16ZM59 30C51.268 30 45 23.732 45 16L43 16C43 24.8366 50.1634 32 59 32L59 30ZM73 16C73 23.732 66.732 30 59 30L59 32C67.8366 32 75 24.8366 75 16L73 16ZM72.8372 13.8572C72.9443 14.5553 73 15.2708 73 16L75 16C75 15.1689 74.9365 14.3519 74.814 13.5538L72.8372 13.8572ZM106 8L77.249 8L77.249 10L106 10L106 8ZM110 40.7509L110 12L108 12L108 40.7509L110 40.7509ZM102 45C102.729 45 103.445 45.0557 104.143 45.1628L104.446 43.186C103.648 43.0635 102.831 43 102 43L102 45ZM88 59C88 51.268 94.268 45 102 45L102 43C93.1634 43 86 50.1634 86 59L88 59ZM102 73C94.268 73 88 66.732 88 59L86 59C86 67.8366 93.1634 75 102 75L102 73ZM104.143 72.8372C103.445 72.9443 102.729 73 102 73L102 75C102.831 75 103.648 74.9365 104.446 74.814L104.143 72.8372ZM110 106L110 77.249L108 77.249L108 106L110 106ZM108 40.7509C108 41.484 107.605 42.143 106.919 42.6144C106.224 43.0916 105.303 43.3175 104.446 43.186L104.143 45.1628C105.52 45.3742 106.951 45.0183 108.051 44.263C109.159 43.502 110 42.2778 110 40.7509L108 40.7509ZM106 10C107.105 10 108 10.8954 108 12L110 12C110 9.79086 108.209 8 106 8L106 10ZM40.7509 10C41.484 10 42.143 10.3949 42.6144 11.0813C43.0916 11.776 43.3175 12.697 43.186 13.5538L45.1628 13.8572C45.3742 12.4803 45.0183 11.0485 44.263 9.94894C43.502 8.841 42.2778 8 40.7509 8L40.7509 10ZM74.814 13.5538C74.6825 12.697 74.9084 11.776 75.3856 11.0813C75.857 10.3949 76.516 10 77.249 10L77.249 8C75.7222 8 74.498 8.841 73.737 9.94893C72.9817 11.0485 72.6258 12.4803 72.8372 13.8572L74.814 13.5538ZM104.446 74.814C105.303 74.6825 106.224 74.9084 106.919 75.3856C107.605 75.857 108 76.516 108 77.249L110 77.249C110 75.7222 109.159 74.498 108.051 73.737C106.951 72.9817 105.52 72.6258 104.143 72.8372L104.446 74.814ZM10 12C10 10.8954 10.8954 10 12 10L12 8C9.79086 8 8 9.79086 8 12L10 12ZM106 110C108.209 110 110 108.209 110 106L108 106C108 107.105 107.105 108 106 108L106 110ZM12 108C10.8954 108 10 107.105 10 106L8 106C8 108.209 9.79086 110 12 110L12 108Z" fill="black" mask="url(#path-2-inside-1_102_465)"/>
</svg>
