<svg width="144" height="118" viewBox="0 0 144 118" fill="none" xmlns="http://www.w3.org/2000/svg">
<mask id="path-2-inside-1_102_464" fill="white">
<path fill-rule="evenodd" clip-rule="evenodd" d="M119 109C120.657 109 122 107.657 122 106L122 77.2491C122 74.9892 124.472 73.4827 126.706 73.8256C127.454 73.9404 128.22 74 129 74C137.284 74 144 67.2843 144 59C144 50.7157 137.284 44 129 44C128.22 44 127.454 44.0596 126.706 44.1744C124.472 44.5173 122 43.0108 122 40.751L122 12C122 10.3431 120.657 9 119 9L90.249 9C87.9892 9 86.4827 11.4718 86.8256 13.7055C86.9404 14.4536 87 15.2198 87 16C87 24.2843 80.2843 31 72 31C63.7157 31 57 24.2843 57 16C57 15.2198 57.0596 14.4536 57.1744 13.7055C57.5172 11.4718 56.0108 9.00001 53.7509 9.00001L25 9.00001C23.3431 9.00001 22 10.3432 22 12L22 40.751C22 43.0108 19.5282 44.5173 17.2945 44.1744C16.5464 44.0596 15.7802 44 15 44C6.71572 44 -5.09537e-06 50.7157 -4.37114e-06 59C-3.6469e-06 67.2843 6.71573 74 15 74C15.7802 74 16.5464 73.9404 17.2945 73.8256C19.5282 73.4828 22 74.9892 22 77.2491L22 106C22 107.657 23.3431 109 25 109L119 109Z"/>
</mask>
<path fill-rule="evenodd" clip-rule="evenodd" d="M119 109C120.657 109 122 107.657 122 106L122 77.2491C122 74.9892 124.472 73.4827 126.706 73.8256C127.454 73.9404 128.22 74 129 74C137.284 74 144 67.2843 144 59C144 50.7157 137.284 44 129 44C128.22 44 127.454 44.0596 126.706 44.1744C124.472 44.5173 122 43.0108 122 40.751L122 12C122 10.3431 120.657 9 119 9L90.249 9C87.9892 9 86.4827 11.4718 86.8256 13.7055C86.9404 14.4536 87 15.2198 87 16C87 24.2843 80.2843 31 72 31C63.7157 31 57 24.2843 57 16C57 15.2198 57.0596 14.4536 57.1744 13.7055C57.5172 11.4718 56.0108 9.00001 53.7509 9.00001L25 9.00001C23.3431 9.00001 22 10.3432 22 12L22 40.751C22 43.0108 19.5282 44.5173 17.2945 44.1744C16.5464 44.0596 15.7802 44 15 44C6.71572 44 -5.09537e-06 50.7157 -4.37114e-06 59C-3.6469e-06 67.2843 6.71573 74 15 74C15.7802 74 16.5464 73.9404 17.2945 73.8256C19.5282 73.4828 22 74.9892 22 77.2491L22 106C22 107.657 23.3431 109 25 109L119 109Z" fill="black"/>
<path d="M144 59L145 59L145 59L144 59ZM17.2945 44.1744L17.4462 43.186L17.2945 44.1744ZM25 9.00001L25 8.00001L25 9.00001ZM22 12L23 12L22 12ZM126.706 44.1744L126.857 45.1628L126.706 44.1744ZM57.1744 13.7055L56.186 13.5538L57.1744 13.7055ZM53.7509 9.00001L53.7509 10L53.7509 9.00001ZM121 77.2491L121 106L123 106L123 77.2491L121 77.2491ZM129 73C128.271 73 127.555 72.9443 126.857 72.8372L126.554 74.814C127.352 74.9365 128.169 75 129 75L129 73ZM143 59C143 66.732 136.732 73 129 73L129 75C137.837 75 145 67.8366 145 59L143 59ZM129 45C136.732 45 143 51.268 143 59L145 59C145 50.1634 137.837 43 129 43L129 45ZM126.857 45.1628C127.555 45.0557 128.271 45 129 45L129 43C128.169 43 127.352 43.0635 126.554 43.186L126.857 45.1628ZM121 12L121 40.751L123 40.751L123 12L121 12ZM90.249 10L119 10L119 8L90.249 8L90.249 10ZM85.8372 13.8572C85.9443 14.5553 86 15.2708 86 16L88 16C88 15.1689 87.9365 14.3519 87.814 13.5538L85.8372 13.8572ZM86 16C86 23.732 79.732 30 72 30L72 32C80.8365 32 88 24.8366 88 16L86 16ZM72 30C64.268 30 58 23.732 58 16L56 16C56 24.8366 63.1634 32 72 32L72 30ZM58 16C58 15.2708 58.0557 14.5553 58.1628 13.8572L56.186 13.5538C56.0635 14.3519 56 15.1689 56 16L58 16ZM25 10L53.7509 10L53.7509 8.00001L25 8.00001L25 10ZM23 40.751L23 12L21 12L21 40.751L23 40.751ZM15 45C15.7292 45 16.4447 45.0557 17.1428 45.1628L17.4462 43.186C16.6481 43.0635 15.8311 43 15 43L15 45ZM0.999996 59C0.999995 51.268 7.26801 45 15 45L15 43C6.16344 43 -1.00001 50.1635 -1 59L0.999996 59ZM15 73C7.26801 73 0.999996 66.732 0.999996 59L-1 59C-1 67.8366 6.16344 75 15 75L15 73ZM17.1428 72.8372C16.4447 72.9443 15.7292 73 15 73L15 75C15.8311 75 16.6481 74.9366 17.4462 74.814L17.1428 72.8372ZM23 106L23 77.2491L21 77.2491L21 106L23 106ZM119 108L25 108L25 110L119 110L119 108ZM21 40.751C21 41.484 20.6051 42.143 19.9187 42.6144C19.224 43.0916 18.303 43.3175 17.4462 43.186L17.1428 45.1628C18.5197 45.3742 19.9515 45.0183 21.0511 44.263C22.159 43.502 23 42.2778 23 40.751L21 40.751ZM21 106C21 108.209 22.7909 110 25 110L25 108C23.8954 108 23 107.105 23 106L21 106ZM90.249 8C88.7222 8 87.498 8.84101 86.737 9.94894C85.9817 11.0485 85.6258 12.4803 85.8372 13.8572L87.814 13.5538C87.6825 12.697 87.9084 11.776 88.3856 11.0813C88.857 10.3949 89.516 10 90.249 10L90.249 8ZM17.4462 74.814C18.303 74.6825 19.224 74.9084 19.9187 75.3856C20.6051 75.8571 21 76.516 21 77.2491L23 77.2491C23 75.7222 22.159 74.498 21.0511 73.737C19.9515 72.9818 18.5197 72.6258 17.1428 72.8372L17.4462 74.814ZM123 12C123 9.79086 121.209 8 119 8L119 10C120.105 10 121 10.8954 121 12L123 12ZM25 8.00001C22.7909 8.00001 21 9.79087 21 12L23 12C23 10.8954 23.8954 10 25 10L25 8.00001ZM121 106C121 107.105 120.105 108 119 108L119 110C121.209 110 123 108.209 123 106L121 106ZM126.554 43.186C125.697 43.3175 124.776 43.0916 124.081 42.6144C123.395 42.143 123 41.484 123 40.751L121 40.751C121 42.2778 121.841 43.502 122.949 44.263C124.049 45.0183 125.48 45.3742 126.857 45.1628L126.554 43.186ZM58.1628 13.8572C58.3742 12.4803 58.0182 11.0485 57.263 9.94895C56.502 8.84101 55.2778 8.00001 53.7509 8.00001L53.7509 10C54.484 10 55.1429 10.3949 55.6144 11.0813C56.0916 11.776 56.3175 12.697 56.186 13.5538L58.1628 13.8572ZM123 77.2491C123 76.516 123.395 75.8571 124.081 75.3856C124.776 74.9084 125.697 74.6825 126.554 74.814L126.857 72.8372C125.48 72.6258 124.049 72.9817 122.949 73.737C121.841 74.498 121 75.7222 121 77.2491L123 77.2491Z" fill="black" mask="url(#path-2-inside-1_102_464)"/>
</svg>
