<svg width="131" height="131" viewBox="0 0 131 131" fill="none" xmlns="http://www.w3.org/2000/svg">
<mask id="path-2-inside-1_102_257" fill="white">
<path fill-rule="evenodd" clip-rule="evenodd" d="M12 109C10.3431 109 9 107.657 9 106L9 12C9 10.3431 10.3431 9 12 9L106 9C107.657 9 109 10.3431 109 12L109 40.7509C109 43.0108 111.472 44.5173 113.706 44.1744C114.454 44.0596 115.22 44 116 44C124.284 44 131 50.7157 131 59C131 67.2843 124.284 74 116 74C115.22 74 114.454 73.9404 113.706 73.8256C111.472 73.4827 109 74.9892 109 77.249V106C109 107.657 107.657 109 106 109H77.2491C74.9892 109 73.4827 111.472 73.8256 113.706C73.9404 114.454 74 115.22 74 116C74 124.284 67.2843 131 59 131C50.7157 131 44 124.284 44 116C44 115.22 44.0596 114.454 44.1744 113.706C44.5173 111.472 43.0108 109 40.751 109H12Z"/>
</mask>
<path fill-rule="evenodd" clip-rule="evenodd" d="M12 109C10.3431 109 9 107.657 9 106L9 12C9 10.3431 10.3431 9 12 9L106 9C107.657 9 109 10.3431 109 12L109 40.7509C109 43.0108 111.472 44.5173 113.706 44.1744C114.454 44.0596 115.22 44 116 44C124.284 44 131 50.7157 131 59C131 67.2843 124.284 74 116 74C115.22 74 114.454 73.9404 113.706 73.8256C111.472 73.4827 109 74.9892 109 77.249V106C109 107.657 107.657 109 106 109H77.2491C74.9892 109 73.4827 111.472 73.8256 113.706C73.9404 114.454 74 115.22 74 116C74 124.284 67.2843 131 59 131C50.7157 131 44 124.284 44 116C44 115.22 44.0596 114.454 44.1744 113.706C44.5173 111.472 43.0108 109 40.751 109H12Z" fill="white"/>
<path d="M109 40.7509H108H109ZM113.706 44.1744L113.554 43.186L113.706 44.1744ZM44.1744 113.706L43.186 113.554L44.1744 113.706ZM109 12H110H109ZM8 12L8 106H10L10 12H8ZM106 8L12 8V10L106 10V8ZM110 40.7509L110 12H108L108 40.7509H110ZM116 43C115.169 43 114.352 43.0635 113.554 43.186L113.857 45.1628C114.555 45.0557 115.271 45 116 45V43ZM132 59C132 50.1634 124.837 43 116 43V45C123.732 45 130 51.268 130 59H132ZM116 75C124.837 75 132 67.8366 132 59H130C130 66.732 123.732 73 116 73V75ZM113.554 74.814C114.352 74.9365 115.169 75 116 75V73C115.271 73 114.555 72.9443 113.857 72.8372L113.554 74.814ZM110 106V77.249H108V106H110ZM77.2491 110H106V108H77.2491V110ZM72.8372 113.857C72.9443 114.555 73 115.271 73 116H75C75 115.169 74.9365 114.352 74.814 113.554L72.8372 113.857ZM73 116C73 123.732 66.732 130 59 130V132C67.8366 132 75 124.837 75 116H73ZM59 130C51.268 130 45 123.732 45 116H43C43 124.837 50.1634 132 59 132V130ZM45 116C45 115.271 45.0557 114.555 45.1628 113.857L43.186 113.554C43.0635 114.352 43 115.169 43 116H45ZM12 110H40.751L40.751 108H12V110ZM77.2491 108C75.7222 108 74.498 108.841 73.737 109.949C72.9817 111.049 72.6258 112.48 72.8372 113.857L74.814 113.554C74.6825 112.697 74.9084 111.776 75.3856 111.081C75.857 110.395 76.516 110 77.2491 110V108ZM108 106C108 107.105 107.105 108 106 108V110C108.209 110 110 108.209 110 106H108ZM108 40.7509C108 42.2778 108.841 43.502 109.949 44.263C111.049 45.0183 112.48 45.3742 113.857 45.1628L113.554 43.186C112.697 43.3175 111.776 43.0916 111.081 42.6144C110.395 42.143 110 41.484 110 40.7509H108ZM113.857 72.8372C112.48 72.6258 111.049 72.9817 109.949 73.737C108.841 74.498 108 75.7222 108 77.249H110C110 76.516 110.395 75.857 111.081 75.3856C111.776 74.9084 112.697 74.6825 113.554 74.814L113.857 72.8372ZM45.1628 113.857C45.3742 112.48 45.0183 111.049 44.263 109.949C43.502 108.841 42.2778 108 40.751 108L40.751 110C41.484 110 42.143 110.395 42.6144 111.081C43.0916 111.776 43.3175 112.697 43.186 113.554L45.1628 113.857ZM106 10C107.105 10 108 10.8954 108 12H110C110 9.79086 108.209 8 106 8V10ZM8 106C8 108.209 9.79086 110 12 110V108C10.8954 108 10 107.105 10 106H8ZM10 12C10 10.8954 10.8954 10 12 10V8C9.79086 8 8 9.79086 8 12H10Z" fill="black" mask="url(#path-2-inside-1_102_257)"/>
</svg>
