<svg width="16" height="16" viewBox="0 0 16 16" fill="none" xmlns="http://www.w3.org/2000/svg">
<path d="M1.35355 0.646447C1.15829 0.451184 0.841709 0.451184 0.646447 0.646447C0.451184 0.841709 0.451184 1.15829 0.646447 1.35355L1.35355 0.646447ZM15.1421 15.6421C15.4183 15.6421 15.6421 15.4183 15.6421 15.1421L15.6421 10.6421C15.6421 10.366 15.4183 10.1421 15.1421 10.1421C14.866 10.1421 14.6421 10.366 14.6421 10.6421L14.6421 14.6421L10.6421 14.6421C10.366 14.6421 10.1421 14.866 10.1421 15.1421C10.1421 15.4183 10.366 15.6421 10.6421 15.6421L15.1421 15.6421ZM0.646447 1.35355L14.7886 15.4957L15.4957 14.7886L1.35355 0.646447L0.646447 1.35355Z" fill="white"/>
</svg>
