<svg width="118" height="131" viewBox="0 0 118 131" fill="none" xmlns="http://www.w3.org/2000/svg">
<mask id="path-2-inside-1_102_251" fill="white">
<path fill-rule="evenodd" clip-rule="evenodd" d="M13.7056 73.8256C11.4718 73.4827 9.00004 74.9892 9.00004 77.2491L9.00004 106C9.00004 107.657 10.3432 109 12 109H40.751C43.0109 109 44.5173 111.472 44.1744 113.706C44.0596 114.454 44 115.22 44 116C44 124.284 50.7158 131 59 131C67.2843 131 74 124.284 74 116C74 115.22 73.9405 114.454 73.8257 113.706C73.4828 111.472 74.9892 109 77.2491 109H106C107.657 109 109 107.657 109 106V77.2491C109 74.9892 106.528 73.4827 104.295 73.8256C103.546 73.9404 102.78 74 102 74C93.7158 74 87 67.2843 87 59C87 50.7157 93.7158 44 102 44C102.78 44 103.546 44.0596 104.295 44.1744C106.528 44.5173 109 43.0108 109 40.751V12C109 10.3431 107.657 9 106 9L12 9C10.3432 9 9.00004 10.3431 9.00004 12L9.00004 40.7509C9.00004 43.0108 11.4718 44.5173 13.7056 44.1744C14.4536 44.0596 15.2199 44 16 44C24.2843 44 31 50.7157 31 59C31 67.2843 24.2843 74 16 74C15.2199 74 14.4536 73.9404 13.7056 73.8256Z"/>
</mask>
<path fill-rule="evenodd" clip-rule="evenodd" d="M13.7056 73.8256C11.4718 73.4827 9.00004 74.9892 9.00004 77.2491L9.00004 106C9.00004 107.657 10.3432 109 12 109H40.751C43.0109 109 44.5173 111.472 44.1744 113.706C44.0596 114.454 44 115.22 44 116C44 124.284 50.7158 131 59 131C67.2843 131 74 124.284 74 116C74 115.22 73.9405 114.454 73.8257 113.706C73.4828 111.472 74.9892 109 77.2491 109H106C107.657 109 109 107.657 109 106V77.2491C109 74.9892 106.528 73.4827 104.295 73.8256C103.546 73.9404 102.78 74 102 74C93.7158 74 87 67.2843 87 59C87 50.7157 93.7158 44 102 44C102.78 44 103.546 44.0596 104.295 44.1744C106.528 44.5173 109 43.0108 109 40.751V12C109 10.3431 107.657 9 106 9L12 9C10.3432 9 9.00004 10.3431 9.00004 12L9.00004 40.7509C9.00004 43.0108 11.4718 44.5173 13.7056 44.1744C14.4536 44.0596 15.2199 44 16 44C24.2843 44 31 50.7157 31 59C31 67.2843 24.2843 74 16 74C15.2199 74 14.4536 73.9404 13.7056 73.8256Z" fill="black"/>
<path d="M13.7056 44.1744L13.5538 43.186L13.7056 44.1744ZM44.1744 113.706L43.186 113.554L44.1744 113.706ZM10 106L10 77.2491H8.00004L8.00004 106H10ZM40.751 108H12V110H40.751V108ZM45 116C45 115.271 45.0557 114.555 45.1628 113.857L43.186 113.554C43.0635 114.352 43 115.169 43 116H45ZM59 130C51.2681 130 45 123.732 45 116H43C43 124.837 50.1635 132 59 132V130ZM73 116C73 123.732 66.732 130 59 130V132C67.8366 132 75 124.837 75 116H73ZM72.8372 113.857C72.9444 114.555 73 115.271 73 116H75C75 115.169 74.9366 114.352 74.8141 113.554L72.8372 113.857ZM106 108H77.2491V110H106V108ZM108 77.2491V106H110V77.2491H108ZM102 75C102.831 75 103.648 74.9365 104.446 74.814L104.143 72.8372C103.445 72.9443 102.729 73 102 73V75ZM86 59C86 67.8366 93.1635 75 102 75V73C94.2681 73 88 66.732 88 59H86ZM102 43C93.1635 43 86 50.1634 86 59H88C88 51.268 94.2681 45 102 45V43ZM104.446 43.186C103.648 43.0635 102.831 43 102 43V45C102.729 45 103.445 45.0557 104.143 45.1628L104.446 43.186ZM108 12V40.751L110 40.751V12H108ZM12 10L106 10V8L12 8V10ZM10 40.7509L10 12H8.00004L8.00004 40.7509H10ZM13.8573 45.1628C14.5553 45.0557 15.2708 45 16 45V43C15.1689 43 14.3519 43.0635 13.5538 43.186L13.8573 45.1628ZM16 45C23.732 45 30 51.268 30 59L32 59C32 50.1634 24.8366 43 16 43V45ZM30 59C30 66.732 23.732 73 16 73V75C24.8366 75 32 67.8366 32 59L30 59ZM16 73C15.2708 73 14.5553 72.9443 13.8573 72.8372L13.5538 74.814C14.3519 74.9365 15.1689 75 16 75V73ZM8.00004 40.7509C8.00004 42.2778 8.84104 43.502 9.94898 44.263C11.0486 45.0183 12.4803 45.3742 13.8573 45.1628L13.5538 43.186C12.697 43.3175 11.7761 43.0916 11.0813 42.6144C10.3949 42.143 10 41.484 10 40.7509H8.00004ZM12 8C9.7909 8 8.00004 9.79086 8.00004 12H10C10 10.8954 10.8955 10 12 10V8ZM110 77.2491C110 75.7222 109.159 74.498 108.051 73.737C106.952 72.9817 105.52 72.6258 104.143 72.8372L104.446 74.814C105.303 74.6825 106.224 74.9084 106.919 75.3856C107.605 75.857 108 76.516 108 77.2491H110ZM106 110C108.209 110 110 108.209 110 106H108C108 107.105 107.105 108 106 108V110ZM110 12C110 9.79086 108.209 8 106 8V10C107.105 10 108 10.8954 108 12H110ZM40.751 110C41.484 110 42.143 110.395 42.6145 111.081C43.0917 111.776 43.3175 112.697 43.186 113.554L45.1628 113.857C45.3742 112.48 45.0183 111.049 44.263 109.949C43.502 108.841 42.2778 108 40.751 108V110ZM74.8141 113.554C74.6826 112.697 74.9084 111.776 75.3856 111.081C75.8571 110.395 76.5161 110 77.2491 110V108C75.7222 108 74.498 108.841 73.737 109.949C72.9818 111.049 72.6259 112.48 72.8372 113.857L74.8141 113.554ZM104.143 45.1628C105.52 45.3742 106.952 45.0183 108.051 44.263C109.159 43.502 110 42.2778 110 40.751L108 40.751C108 41.484 107.605 42.143 106.919 42.6144C106.224 43.0916 105.303 43.3175 104.446 43.186L104.143 45.1628ZM10 77.2491C10 76.516 10.3949 75.857 11.0813 75.3856C11.7761 74.9084 12.697 74.6825 13.5538 74.814L13.8573 72.8372C12.4803 72.6258 11.0486 72.9817 9.94898 73.737C8.84104 74.498 8.00004 75.7222 8.00004 77.2491H10ZM8.00004 106C8.00004 108.209 9.7909 110 12 110V108C10.8955 108 10 107.105 10 106H8.00004Z" fill="black" mask="url(#path-2-inside-1_102_251)"/>
</svg>
