<svg width="131" height="131" viewBox="0 0 131 131" fill="none" xmlns="http://www.w3.org/2000/svg">
<mask id="path-2-inside-1_102_729" fill="white">
<path fill-rule="evenodd" clip-rule="evenodd" d="M77.2491 109C74.9892 109 73.4827 111.472 73.8256 113.706C73.9404 114.454 74 115.22 74 116C74 124.284 67.2843 131 59 131C50.7157 131 44 124.284 44 116C44 115.22 44.0596 114.454 44.1744 113.706C44.5173 111.472 43.0108 109 40.7509 109L12 109C10.3431 109 9 107.657 9 106L9 77.2491C9 74.9892 11.4718 73.4828 13.7055 73.8256C14.4536 73.9404 15.2198 74 16 74C24.2843 74 31 67.2843 31 59C31 50.7157 24.2843 44 16 44C15.2198 44 14.4536 44.0596 13.7055 44.1744C11.4718 44.5173 8.99999 43.0109 8.99999 40.751L8.99999 12C8.99999 10.3432 10.3431 9.00001 12 9.00001L40.7509 9.00001C43.0108 9.00001 44.5172 11.4718 44.1744 13.7055C44.0596 14.4536 44 15.2198 44 16C44 24.2843 50.7157 31 59 31C67.2843 31 74 24.2843 74 16C74 15.2198 73.9404 14.4536 73.8256 13.7055C73.4827 11.4718 74.9891 9 77.249 9L106 9C107.657 9 109 10.3431 109 12L109 40.7509C109 43.0108 111.472 44.5173 113.706 44.1744C114.454 44.0596 115.22 44 116 44C124.284 44 131 50.7157 131 59C131 67.2843 124.284 74 116 74C115.22 74 114.454 73.9404 113.706 73.8256C111.472 73.4827 109 74.9892 109 77.2491L109 106C109 107.657 107.657 109 106 109L77.2491 109Z"/>
</mask>
<path fill-rule="evenodd" clip-rule="evenodd" d="M77.2491 109C74.9892 109 73.4827 111.472 73.8256 113.706C73.9404 114.454 74 115.22 74 116C74 124.284 67.2843 131 59 131C50.7157 131 44 124.284 44 116C44 115.22 44.0596 114.454 44.1744 113.706C44.5173 111.472 43.0108 109 40.7509 109L12 109C10.3431 109 9 107.657 9 106L9 77.2491C9 74.9892 11.4718 73.4828 13.7055 73.8256C14.4536 73.9404 15.2198 74 16 74C24.2843 74 31 67.2843 31 59C31 50.7157 24.2843 44 16 44C15.2198 44 14.4536 44.0596 13.7055 44.1744C11.4718 44.5173 8.99999 43.0109 8.99999 40.751L8.99999 12C8.99999 10.3432 10.3431 9.00001 12 9.00001L40.7509 9.00001C43.0108 9.00001 44.5172 11.4718 44.1744 13.7055C44.0596 14.4536 44 15.2198 44 16C44 24.2843 50.7157 31 59 31C67.2843 31 74 24.2843 74 16C74 15.2198 73.9404 14.4536 73.8256 13.7055C73.4827 11.4718 74.9891 9 77.249 9L106 9C107.657 9 109 10.3431 109 12L109 40.7509C109 43.0108 111.472 44.5173 113.706 44.1744C114.454 44.0596 115.22 44 116 44C124.284 44 131 50.7157 131 59C131 67.2843 124.284 74 116 74C115.22 74 114.454 73.9404 113.706 73.8256C111.472 73.4827 109 74.9892 109 77.2491L109 106C109 107.657 107.657 109 106 109L77.2491 109Z" fill="black"/>
<path d="M131 59L132 59L132 59L131 59ZM113.706 44.1744L113.857 45.1628L113.706 44.1744ZM113.706 73.8256L113.554 74.814L113.706 73.8256ZM8.99999 12L9.99999 12L8.99999 12ZM12 9.00001L12 8.00001L12 9.00001ZM13.7055 44.1744L13.5538 43.186L13.7055 44.1744ZM44.1744 113.706L45.1628 113.857L44.1744 113.706ZM13.7055 73.8256L13.8572 72.8372L13.7055 73.8256ZM40.7509 9.00001L40.7509 10L40.7509 9.00001ZM44.1744 13.7055L43.186 13.5538L44.1744 13.7055ZM75 116C75 115.169 74.9365 114.352 74.814 113.554L72.8372 113.857C72.9443 114.555 73 115.271 73 116L75 116ZM59 132C67.8366 132 75 124.837 75 116L73 116C73 123.732 66.732 130 59 130L59 132ZM43 116C43 124.837 50.1634 132 59 132L59 130C51.268 130 45 123.732 45 116L43 116ZM43.186 113.554C43.0635 114.352 43 115.169 43 116L45 116C45 115.271 45.0557 114.555 45.1628 113.857L43.186 113.554ZM12 110L40.7509 110L40.7509 108L12 108L12 110ZM8 77.2491L8 106L10 106L10 77.2491L8 77.2491ZM16 73C15.2708 73 14.5553 72.9443 13.8572 72.8372L13.5538 74.814C14.3519 74.9366 15.1689 75 16 75L16 73ZM30 59C30 66.732 23.732 73 16 73L16 75C24.8366 75 32 67.8366 32 59L30 59ZM16 45C23.732 45 30 51.268 30 59L32 59C32 50.1635 24.8365 43 16 43L16 45ZM13.8572 45.1628C14.5553 45.0557 15.2708 45 16 45L16 43C15.1689 43 14.3519 43.0635 13.5538 43.186L13.8572 45.1628ZM7.99999 12L7.99999 40.751L9.99999 40.751L9.99999 12L7.99999 12ZM40.7509 8.00001L12 8.00001L12 10L40.7509 10L40.7509 8.00001ZM45 16C45 15.2708 45.0557 14.5553 45.1628 13.8572L43.186 13.5538C43.0634 14.3519 43 15.1689 43 16L45 16ZM59 30C51.268 30 45 23.732 45 16L43 16C43 24.8366 50.1634 32 59 32L59 30ZM73 16C73 23.732 66.732 30 59 30L59 32C67.8365 32 75 24.8366 75 16L73 16ZM72.8372 13.8572C72.9443 14.5553 73 15.2708 73 16L75 16C75 15.1689 74.9365 14.3519 74.814 13.5538L72.8372 13.8572ZM106 8L77.249 8L77.249 10L106 10L106 8ZM110 40.7509L110 12L108 12L108 40.7509L110 40.7509ZM116 43C115.169 43 114.352 43.0635 113.554 43.186L113.857 45.1628C114.555 45.0557 115.271 45 116 45L116 43ZM132 59C132 50.1634 124.837 43 116 43L116 45C123.732 45 130 51.268 130 59L132 59ZM116 75C124.837 75 132 67.8366 132 59L130 59C130 66.732 123.732 73 116 73L116 75ZM113.554 74.814C114.352 74.9365 115.169 75 116 75L116 73C115.271 73 114.555 72.9443 113.857 72.8372L113.554 74.814ZM110 106L110 77.2491L108 77.2491L108 106L110 106ZM77.2491 110L106 110L106 108L77.2491 108L77.2491 110ZM108 106C108 107.105 107.105 108 106 108L106 110C108.209 110 110 108.209 110 106L108 106ZM108 40.7509C108 42.2778 108.841 43.502 109.949 44.263C111.049 45.0183 112.48 45.3742 113.857 45.1628L113.554 43.186C112.697 43.3175 111.776 43.0916 111.081 42.6144C110.395 42.143 110 41.484 110 40.7509L108 40.7509ZM113.857 72.8372C112.48 72.6258 111.049 72.9818 109.949 73.737C108.841 74.498 108 75.7222 108 77.2491L110 77.2491C110 76.516 110.395 75.8571 111.081 75.3856C111.776 74.9084 112.697 74.6825 113.554 74.814L113.857 72.8372ZM9.99999 12C9.99999 10.8954 10.8954 10 12 10L12 8.00001C9.79085 8.00001 7.99999 9.79087 7.99999 12L9.99999 12ZM13.5538 43.186C12.697 43.3175 11.776 43.0916 11.0813 42.6144C10.3949 42.143 9.99999 41.484 9.99999 40.751L7.99999 40.751C7.99999 42.2778 8.841 43.502 9.94893 44.263C11.0485 45.0183 12.4803 45.3742 13.8572 45.1628L13.5538 43.186ZM74.814 13.5538C74.6825 12.697 74.9084 11.776 75.3856 11.0813C75.857 10.3949 76.516 10 77.249 10L77.249 8C75.7222 8 74.498 8.84101 73.737 9.94894C72.9817 11.0485 72.6258 12.4803 72.8372 13.8572L74.814 13.5538ZM12 108C10.8954 108 10 107.105 10 106L8 106C8 108.209 9.79086 110 12 110L12 108ZM45.1628 113.857C45.3742 112.48 45.0183 111.049 44.263 109.949C43.502 108.841 42.2778 108 40.7509 108L40.7509 110C41.484 110 42.1429 110.395 42.6144 111.081C43.0916 111.776 43.3175 112.697 43.186 113.554L45.1628 113.857ZM106 10C107.105 10 108 10.8954 108 12L110 12C110 9.79086 108.209 8 106 8L106 10ZM10 77.2491C10 76.516 10.3949 75.8571 11.0813 75.3856C11.776 74.9084 12.697 74.6825 13.5538 74.814L13.8572 72.8372C12.4803 72.6258 11.0485 72.9818 9.94893 73.737C8.841 74.498 8 75.7222 8 77.2491L10 77.2491ZM40.7509 10C41.484 10 42.1429 10.3949 42.6144 11.0813C43.0916 11.776 43.3175 12.697 43.186 13.5538L45.1628 13.8572C45.3742 12.4803 45.0182 11.0485 44.263 9.94895C43.502 8.84101 42.2778 8.00001 40.7509 8.00001L40.7509 10ZM74.814 113.554C74.6825 112.697 74.9084 111.776 75.3856 111.081C75.8571 110.395 76.516 110 77.2491 110L77.2491 108C75.7222 108 74.498 108.841 73.737 109.949C72.9817 111.049 72.6258 112.48 72.8372 113.857L74.814 113.554Z" fill="black" mask="url(#path-2-inside-1_102_729)"/>
</svg>
