<svg width="144" height="144" viewBox="0 0 144 144" fill="none" xmlns="http://www.w3.org/2000/svg">
<mask id="path-2-inside-1_102_260" fill="white">
<path fill-rule="evenodd" clip-rule="evenodd" d="M53.7509 22C56.0108 22 57.5173 19.5282 57.1744 17.2945C57.0596 16.5464 57 15.7802 57 15C57 6.71573 63.7157 0 72 0C80.2843 0 87 6.71573 87 15C87 15.7802 86.9404 16.5464 86.8256 17.2945C86.4827 19.5282 87.9892 22 90.2491 22H119C120.657 22 122 23.3431 122 25V53.7509C122 56.0108 124.472 57.5173 126.706 57.1744C127.454 57.0596 128.22 57 129 57C137.284 57 144 63.7157 144 72C144 80.2843 137.284 87 129 87C128.22 87 127.454 86.9404 126.706 86.8256C124.472 86.4827 122 87.9892 122 90.249V119C122 120.657 120.657 122 119 122H90.2491C87.9892 122 86.4827 124.472 86.8256 126.706C86.9404 127.454 87 128.22 87 129C87 137.284 80.2843 144 72 144C63.7157 144 57 137.284 57 129C57 128.22 57.0596 127.454 57.1744 126.706C57.5173 124.472 56.0108 122 53.751 122H25C23.3431 122 22 120.657 22 119V90.2491C22 87.9892 19.5282 86.4827 17.2945 86.8256C16.5464 86.9404 15.7802 87 15 87C6.71573 87 1.90735e-06 80.2843 0 72C0 63.7157 6.71573 57 15 57C15.7802 57 16.5464 57.0596 17.2945 57.1744C19.5282 57.5173 22 56.0108 22 53.7509V25C22 23.3431 23.3431 22 25 22H53.7509Z"/>
</mask>
<path fill-rule="evenodd" clip-rule="evenodd" d="M53.7509 22C56.0108 22 57.5173 19.5282 57.1744 17.2945C57.0596 16.5464 57 15.7802 57 15C57 6.71573 63.7157 0 72 0C80.2843 0 87 6.71573 87 15C87 15.7802 86.9404 16.5464 86.8256 17.2945C86.4827 19.5282 87.9892 22 90.2491 22H119C120.657 22 122 23.3431 122 25V53.7509C122 56.0108 124.472 57.5173 126.706 57.1744C127.454 57.0596 128.22 57 129 57C137.284 57 144 63.7157 144 72C144 80.2843 137.284 87 129 87C128.22 87 127.454 86.9404 126.706 86.8256C124.472 86.4827 122 87.9892 122 90.249V119C122 120.657 120.657 122 119 122H90.2491C87.9892 122 86.4827 124.472 86.8256 126.706C86.9404 127.454 87 128.22 87 129C87 137.284 80.2843 144 72 144C63.7157 144 57 137.284 57 129C57 128.22 57.0596 127.454 57.1744 126.706C57.5173 124.472 56.0108 122 53.751 122H25C23.3431 122 22 120.657 22 119V90.2491C22 87.9892 19.5282 86.4827 17.2945 86.8256C16.5464 86.9404 15.7802 87 15 87C6.71573 87 1.90735e-06 80.2843 0 72C0 63.7157 6.71573 57 15 57C15.7802 57 16.5464 57.0596 17.2945 57.1744C19.5282 57.5173 22 56.0108 22 53.7509V25C22 23.3431 23.3431 22 25 22H53.7509Z" fill="black"/>
<path d="M0 72L-1 72L-1 72L0 72ZM17.2945 86.8256L17.1428 85.8372L17.2945 86.8256ZM126.706 57.1744L126.554 56.186L126.706 57.1744ZM17.2945 57.1744L17.4462 56.186L17.2945 57.1744ZM58.1628 17.1428C58.0557 16.4447 58 15.7292 58 15H56C56 15.8311 56.0635 16.6481 56.186 17.4462L58.1628 17.1428ZM58 15C58 7.26801 64.268 1 72 1V-1C63.1634 -1 56 6.16345 56 15H58ZM72 1C79.732 1 86 7.26801 86 15H88C88 6.16344 80.8366 -1 72 -1V1ZM86 15C86 15.7292 85.9443 16.4447 85.8372 17.1428L87.814 17.4462C87.9365 16.6481 88 15.8311 88 15H86ZM119 21H90.2491V23H119V21ZM123 53.7509V25H121V53.7509H123ZM129 56C128.169 56 127.352 56.0635 126.554 56.186L126.857 58.1628C127.555 58.0557 128.271 58 129 58V56ZM145 72C145 63.1634 137.837 56 129 56V58C136.732 58 143 64.268 143 72H145ZM129 88C137.837 88 145 80.8366 145 72H143C143 79.732 136.732 86 129 86V88ZM126.554 87.814C127.352 87.9365 128.169 88 129 88V86C128.271 86 127.555 85.9443 126.857 85.8372L126.554 87.814ZM123 119V90.249H121V119H123ZM90.2491 123H119V121H90.2491V123ZM88 129C88 128.169 87.9365 127.352 87.814 126.554L85.8372 126.857C85.9443 127.555 86 128.271 86 129H88ZM72 145C80.8366 145 88 137.837 88 129H86C86 136.732 79.732 143 72 143V145ZM56 129C56 137.837 63.1634 145 72 145V143C64.268 143 58 136.732 58 129H56ZM56.186 126.554C56.0635 127.352 56 128.169 56 129H58C58 128.271 58.0557 127.555 58.1628 126.857L56.186 126.554ZM25 123H53.751V121H25V123ZM21 90.2491V119H23V90.2491H21ZM15 88C15.8311 88 16.6481 87.9365 17.4462 87.814L17.1428 85.8372C16.4447 85.9443 15.7292 86 15 86V88ZM-1 72C-0.999998 80.8366 6.16345 88 15 88V86C7.26802 86 1 79.732 1 72L-1 72ZM15 56C6.16344 56 -1 63.1634 -1 72H1C1 64.268 7.26801 58 15 58V56ZM17.4462 56.186C16.6481 56.0635 15.8311 56 15 56V58C15.7292 58 16.4447 58.0557 17.1428 58.1628L17.4462 56.186ZM21 25V53.7509H23V25H21ZM53.7509 21H25V23H53.7509V21ZM23 90.2491C23 88.7222 22.159 87.498 21.0511 86.737C19.9515 85.9817 18.5197 85.6258 17.1428 85.8372L17.4462 87.814C18.303 87.6825 19.224 87.9084 19.9187 88.3856C20.6051 88.857 21 89.516 21 90.2491H23ZM90.2491 121C88.7222 121 87.498 121.841 86.737 122.949C85.9817 124.049 85.6258 125.48 85.8372 126.857L87.814 126.554C87.6825 125.697 87.9084 124.776 88.3856 124.081C88.857 123.395 89.516 123 90.2491 123V121ZM25 121C23.8954 121 23 120.105 23 119H21C21 121.209 22.7909 123 25 123V121ZM121 53.7509C121 55.2778 121.841 56.502 122.949 57.263C124.049 58.0183 125.48 58.3742 126.857 58.1628L126.554 56.186C125.697 56.3175 124.776 56.0916 124.081 55.6144C123.395 55.143 123 54.484 123 53.7509H121ZM85.8372 17.1428C85.6258 18.5197 85.9817 19.9515 86.737 21.0511C87.498 22.159 88.7222 23 90.2491 23V21C89.516 21 88.857 20.6051 88.3856 19.9187C87.9084 19.224 87.6825 18.303 87.814 17.4462L85.8372 17.1428ZM126.857 85.8372C125.48 85.6258 124.049 85.9817 122.949 86.737C121.841 87.498 121 88.7222 121 90.249H123C123 89.516 123.395 88.857 124.081 88.3856C124.776 87.9084 125.697 87.6825 126.554 87.814L126.857 85.8372ZM58.1628 126.857C58.3742 125.48 58.0183 124.049 57.263 122.949C56.502 121.841 55.2778 121 53.751 121V123C54.484 123 55.143 123.395 55.6144 124.081C56.0916 124.776 56.3175 125.697 56.186 126.554L58.1628 126.857ZM119 23C120.105 23 121 23.8954 121 25H123C123 22.7909 121.209 21 119 21V23ZM17.1428 58.1628C18.5197 58.3742 19.9515 58.0183 21.0511 57.263C22.159 56.502 23 55.2778 23 53.7509H21C21 54.484 20.6051 55.143 19.9187 55.6144C19.224 56.0916 18.303 56.3175 17.4462 56.186L17.1428 58.1628ZM121 119C121 120.105 120.105 121 119 121V123C121.209 123 123 121.209 123 119H121ZM23 25C23 23.8954 23.8954 23 25 23V21C22.7909 21 21 22.7909 21 25H23ZM56.186 17.4462C56.3175 18.303 56.0916 19.224 55.6144 19.9187C55.1429 20.6051 54.484 21 53.7509 21V23C55.2778 23 56.502 22.159 57.263 21.0511C58.0182 19.9515 58.3742 18.5197 58.1628 17.1428L56.186 17.4462Z" fill="black" mask="url(#path-2-inside-1_102_260)"/>
</svg>
