<svg width="131" height="131" viewBox="0 0 131 131" fill="none" xmlns="http://www.w3.org/2000/svg">
<mask id="path-2-inside-1_102_461" fill="white">
<path fill-rule="evenodd" clip-rule="evenodd" d="M117.294 57.1744C119.528 57.5173 122 56.0108 122 53.7509L122 25C122 23.3431 120.657 22 119 22L90.249 22C87.9892 22 86.4827 19.5282 86.8256 17.2945C86.9404 16.5464 87 15.7802 87 15C87 6.71573 80.2843 3.6469e-06 72 4.37114e-06C63.7157 5.09537e-06 57 6.71573 57 15C57 15.7802 57.0596 16.5464 57.1744 17.2945C57.5172 19.5282 56.0108 22 53.7509 22L25 22C23.3431 22 22 23.3432 22 25L22 53.751C22 56.0108 19.5282 57.5173 17.2945 57.1744C16.5464 57.0596 15.7802 57 15 57C6.71572 57 -5.09537e-06 63.7157 -4.37114e-06 72C-3.6469e-06 80.2843 6.71573 87 15 87C15.7802 87 16.5464 86.9404 17.2945 86.8256C19.5282 86.4828 22 87.9892 22 90.2491L22 119C22 120.657 23.3431 122 25 122L119 122C120.657 122 122 120.657 122 119L122 90.2491C122 87.9892 119.528 86.4827 117.294 86.8256C116.546 86.9404 115.78 87 115 87C106.716 87 100 80.2843 100 72C100 63.7157 106.716 57 115 57C115.78 57 116.546 57.0596 117.294 57.1744Z"/>
</mask>
<path fill-rule="evenodd" clip-rule="evenodd" d="M117.294 57.1744C119.528 57.5173 122 56.0108 122 53.7509L122 25C122 23.3431 120.657 22 119 22L90.249 22C87.9892 22 86.4827 19.5282 86.8256 17.2945C86.9404 16.5464 87 15.7802 87 15C87 6.71573 80.2843 3.6469e-06 72 4.37114e-06C63.7157 5.09537e-06 57 6.71573 57 15C57 15.7802 57.0596 16.5464 57.1744 17.2945C57.5172 19.5282 56.0108 22 53.7509 22L25 22C23.3431 22 22 23.3432 22 25L22 53.751C22 56.0108 19.5282 57.5173 17.2945 57.1744C16.5464 57.0596 15.7802 57 15 57C6.71572 57 -5.09537e-06 63.7157 -4.37114e-06 72C-3.6469e-06 80.2843 6.71573 87 15 87C15.7802 87 16.5464 86.9404 17.2945 86.8256C19.5282 86.4828 22 87.9892 22 90.2491L22 119C22 120.657 23.3431 122 25 122L119 122C120.657 122 122 120.657 122 119L122 90.2491C122 87.9892 119.528 86.4827 117.294 86.8256C116.546 86.9404 115.78 87 115 87C106.716 87 100 80.2843 100 72C100 63.7157 106.716 57 115 57C115.78 57 116.546 57.0596 117.294 57.1744Z" fill="black"/>
<path d="M117.294 86.8256L117.446 87.814L117.294 86.8256ZM17.2945 57.1744L17.4462 56.186L17.2945 57.1744ZM25 22L25 21L25 22ZM86.8256 17.2945L87.814 17.4462L86.8256 17.2945ZM57.1744 17.2945L58.1628 17.1428L57.1744 17.2945ZM53.7509 22L53.7509 23L53.7509 22ZM17.2945 86.8256L17.4462 87.814L17.2945 86.8256ZM121 25L121 53.7509L123 53.7509L123 25L121 25ZM90.249 23L119 23L119 21L90.249 21L90.249 23ZM86 15C86 15.7292 85.9443 16.4447 85.8372 17.1428L87.814 17.4462C87.9365 16.6481 88 15.8311 88 15L86 15ZM72 1C79.732 1 86 7.26802 86 15L88 15C88 6.16345 80.8365 -0.999996 72 -0.999996L72 1ZM58 15C58 7.26802 64.268 1.00001 72 1L72 -0.999996C63.1634 -0.999995 56 6.16345 56 15L58 15ZM58.1628 17.1428C58.0557 16.4447 58 15.7292 58 15L56 15C56 15.8311 56.0634 16.6481 56.186 17.4462L58.1628 17.1428ZM25 23L53.7509 23L53.7509 21L25 21L25 23ZM23 53.751L23 25L21 25L21 53.751L23 53.751ZM15 58C15.7292 58 16.4447 58.0557 17.1428 58.1628L17.4462 56.186C16.6481 56.0635 15.8311 56 15 56L15 58ZM0.999996 72C0.999995 64.268 7.26801 58 15 58L15 56C6.16344 56 -1.00001 63.1635 -1 72L0.999996 72ZM15 86C7.26801 86 0.999996 79.732 0.999996 72L-1 72C-1 80.8366 6.16344 88 15 88L15 86ZM17.1428 85.8372C16.4447 85.9443 15.7292 86 15 86L15 88C15.8311 88 16.6481 87.9366 17.4462 87.814L17.1428 85.8372ZM23 119L23 90.2491L21 90.2491L21 119L23 119ZM119 121L25 121L25 123L119 123L119 121ZM121 90.2491L121 119L123 119L123 90.2491L121 90.2491ZM117.143 85.8372C116.445 85.9443 115.729 86 115 86L115 88C115.831 88 116.648 87.9365 117.446 87.814L117.143 85.8372ZM115 86C107.268 86 101 79.732 101 72L99 72C99 80.8366 106.163 88 115 88L115 86ZM101 72C101 64.268 107.268 58 115 58L115 56C106.163 56 99 63.1634 99 72L101 72ZM115 58C115.729 58 116.445 58.0557 117.143 58.1628L117.446 56.186C116.648 56.0635 115.831 56 115 56L115 58ZM123 90.2491C123 88.7222 122.159 87.498 121.051 86.737C119.951 85.9817 118.52 85.6258 117.143 85.8372L117.446 87.814C118.303 87.6825 119.224 87.9084 119.919 88.3856C120.605 88.857 121 89.516 121 90.2491L123 90.2491ZM119 123C121.209 123 123 121.209 123 119L121 119C121 120.105 120.105 121 119 121L119 123ZM21 53.751C21 54.484 20.6051 55.143 19.9187 55.6144C19.224 56.0916 18.303 56.3175 17.4462 56.186L17.1428 58.1628C18.5197 58.3742 19.9515 58.0183 21.0511 57.263C22.159 56.502 23 55.2778 23 53.751L21 53.751ZM25 21C22.7909 21 21 22.7909 21 25L23 25C23 23.8954 23.8954 23 25 23L25 21ZM21 119C21 121.209 22.7909 123 25 123L25 121C23.8954 121 23 120.105 23 119L21 119ZM90.249 21C89.516 21 88.857 20.6051 88.3856 19.9187C87.9084 19.224 87.6825 18.303 87.814 17.4462L85.8372 17.1428C85.6258 18.5197 85.9817 19.9515 86.737 21.0511C87.498 22.159 88.7222 23 90.249 23L90.249 21ZM56.186 17.4462C56.3175 18.303 56.0916 19.224 55.6144 19.9187C55.1429 20.6051 54.484 21 53.7509 21L53.7509 23C55.2778 23 56.502 22.159 57.263 21.0511C58.0182 19.9515 58.3742 18.5197 58.1628 17.1428L56.186 17.4462ZM17.4462 87.814C18.303 87.6825 19.224 87.9084 19.9187 88.3856C20.6051 88.8571 21 89.516 21 90.2491L23 90.2491C23 88.7222 22.159 87.498 21.0511 86.737C19.9515 85.9818 18.5197 85.6258 17.1428 85.8372L17.4462 87.814ZM121 53.7509C121 54.484 120.605 55.143 119.919 55.6144C119.224 56.0916 118.303 56.3175 117.446 56.186L117.143 58.1628C118.52 58.3742 119.951 58.0183 121.051 57.263C122.159 56.502 123 55.2778 123 53.7509L121 53.7509ZM123 25C123 22.7909 121.209 21 119 21L119 23C120.105 23 121 23.8954 121 25L123 25Z" fill="black" mask="url(#path-2-inside-1_102_461)"/>
</svg>
