<svg width="144" height="131" viewBox="0 0 144 131" fill="none" xmlns="http://www.w3.org/2000/svg">
<mask id="path-2-inside-1_102_258" fill="white">
<path fill-rule="evenodd" clip-rule="evenodd" d="M17.2945 73.8256C19.5282 73.4827 22 74.9892 22 77.2491L22 106C22 107.657 23.3431 109 25 109H53.7509C56.0108 109 57.5173 111.472 57.1744 113.706C57.0596 114.454 57 115.22 57 116C57 124.284 63.7157 131 72 131C80.2843 131 87 124.284 87 116C87 115.22 86.9404 114.454 86.8256 113.706C86.4827 111.472 87.9892 109 90.249 109L119 109C120.657 109 122 107.657 122 106V77.2491C122 74.9892 124.472 73.4827 126.706 73.8256C127.454 73.9404 128.22 74 129 74C137.284 74 144 67.2843 144 59C144 50.7157 137.284 44 129 44C128.22 44 127.454 44.0596 126.706 44.1744C124.472 44.5173 122 43.0108 122 40.751V12C122 10.3431 120.657 9 119 9L25 9C23.3431 9 22 10.3431 22 12L22 40.7509C22 43.0108 19.5282 44.5173 17.2945 44.1744C16.5464 44.0596 15.7802 44 15 44C6.71573 44 0 50.7157 0 59C1.90735e-06 67.2843 6.71573 74 15 74C15.7802 74 16.5464 73.9404 17.2945 73.8256Z"/>
</mask>
<path fill-rule="evenodd" clip-rule="evenodd" d="M17.2945 73.8256C19.5282 73.4827 22 74.9892 22 77.2491L22 106C22 107.657 23.3431 109 25 109H53.7509C56.0108 109 57.5173 111.472 57.1744 113.706C57.0596 114.454 57 115.22 57 116C57 124.284 63.7157 131 72 131C80.2843 131 87 124.284 87 116C87 115.22 86.9404 114.454 86.8256 113.706C86.4827 111.472 87.9892 109 90.249 109L119 109C120.657 109 122 107.657 122 106V77.2491C122 74.9892 124.472 73.4827 126.706 73.8256C127.454 73.9404 128.22 74 129 74C137.284 74 144 67.2843 144 59C144 50.7157 137.284 44 129 44C128.22 44 127.454 44.0596 126.706 44.1744C124.472 44.5173 122 43.0108 122 40.751V12C122 10.3431 120.657 9 119 9L25 9C23.3431 9 22 10.3431 22 12L22 40.7509C22 43.0108 19.5282 44.5173 17.2945 44.1744C16.5464 44.0596 15.7802 44 15 44C6.71573 44 0 50.7157 0 59C1.90735e-06 67.2843 6.71573 74 15 74C15.7802 74 16.5464 73.9404 17.2945 73.8256Z" fill="black"/>
<path d="M0 59L-1 59L-1 59L0 59ZM17.2945 44.1744L17.1428 45.1628L17.2945 44.1744ZM25 9V10V9ZM126.706 73.8256L126.554 74.814L126.706 73.8256ZM119 109L119 110L119 109ZM119 9V10V9ZM57.1744 113.706L56.186 113.554L57.1744 113.706ZM90.249 109V108V109ZM17.2945 73.8256L17.1428 72.8372L17.2945 73.8256ZM23 106L23 77.2491H21L21 106H23ZM53.7509 108H25V110H53.7509V108ZM58 116C58 115.271 58.0557 114.555 58.1628 113.857L56.186 113.554C56.0635 114.352 56 115.169 56 116H58ZM72 130C64.268 130 58 123.732 58 116H56C56 124.837 63.1634 132 72 132V130ZM86 116C86 123.732 79.732 130 72 130V132C80.8366 132 88 124.837 88 116H86ZM85.8372 113.857C85.9443 114.555 86 115.271 86 116H88C88 115.169 87.9365 114.352 87.814 113.554L85.8372 113.857ZM119 108L90.249 108V110L119 110V108ZM121 77.2491V106H123V77.2491H121ZM129 73C128.271 73 127.555 72.9443 126.857 72.8372L126.554 74.814C127.352 74.9365 128.169 75 129 75V73ZM143 59C143 66.732 136.732 73 129 73V75C137.837 75 145 67.8366 145 59H143ZM129 45C136.732 45 143 51.268 143 59H145C145 50.1634 137.837 43 129 43V45ZM126.857 45.1628C127.555 45.0557 128.271 45 129 45V43C128.169 43 127.352 43.0635 126.554 43.186L126.857 45.1628ZM121 12V40.751H123V12L121 12ZM25 10L119 10V8L25 8V10ZM23 40.7509L23 12H21L21 40.7509H23ZM15 45C15.7292 45 16.4447 45.0557 17.1428 45.1628L17.4462 43.186C16.6481 43.0635 15.8311 43 15 43V45ZM1 59C1 51.268 7.26801 45 15 45V43C6.16344 43 -1 50.1634 -1 59H1ZM15 73C7.26802 73 1 66.732 1 59L-1 59C-0.999998 67.8366 6.16345 75 15 75L15 73ZM17.1428 72.8372C16.4447 72.9443 15.7292 73 15 73L15 75C15.8311 75 16.6481 74.9365 17.4462 74.814L17.1428 72.8372ZM21 40.7509C21 41.484 20.6051 42.143 19.9187 42.6144C19.224 43.0916 18.303 43.3175 17.4462 43.186L17.1428 45.1628C18.5197 45.3742 19.9515 45.0183 21.0511 44.263C22.159 43.502 23 42.2778 23 40.7509H21ZM25 8C22.7909 8 21 9.79086 21 12H23C23 10.8954 23.8954 10 25 10V8ZM123 77.2491C123 76.516 123.395 75.857 124.081 75.3856C124.776 74.9084 125.697 74.6825 126.554 74.814L126.857 72.8372C125.48 72.6258 124.049 72.9817 122.949 73.737C121.841 74.498 121 75.7222 121 77.2491H123ZM119 110C121.209 110 123 108.209 123 106H121C121 107.105 120.105 108 119 108L119 110ZM123 12C123 9.79086 121.209 8 119 8V10C120.105 10 121 10.8954 121 12L123 12ZM53.7509 110C54.484 110 55.143 110.395 55.6144 111.081C56.0916 111.776 56.3175 112.697 56.186 113.554L58.1628 113.857C58.3742 112.48 58.0183 111.049 57.263 109.949C56.502 108.841 55.2778 108 53.7509 108V110ZM87.814 113.554C87.6825 112.697 87.9084 111.776 88.3856 111.081C88.857 110.395 89.516 110 90.249 110V108C88.7222 108 87.498 108.841 86.737 109.949C85.9817 111.049 85.6258 112.48 85.8372 113.857L87.814 113.554ZM126.554 43.186C125.697 43.3175 124.776 43.0916 124.081 42.6144C123.395 42.143 123 41.484 123 40.751H121C121 42.2778 121.841 43.502 122.949 44.263C124.049 45.0183 125.48 45.3742 126.857 45.1628L126.554 43.186ZM23 77.2491C23 75.7222 22.159 74.498 21.0511 73.737C19.9515 72.9817 18.5197 72.6258 17.1428 72.8372L17.4462 74.814C18.303 74.6825 19.224 74.9084 19.9187 75.3856C20.6051 75.857 21 76.516 21 77.2491H23ZM21 106C21 108.209 22.7909 110 25 110V108C23.8954 108 23 107.105 23 106H21Z" fill="black" mask="url(#path-2-inside-1_102_258)"/>
</svg>
