<svg width="118" height="144" viewBox="0 0 118 144" fill="none" xmlns="http://www.w3.org/2000/svg">
<mask id="path-2-inside-1_102_728" fill="white">
<path fill-rule="evenodd" clip-rule="evenodd" d="M40.7509 22C43.0108 22 44.5173 19.5282 44.1744 17.2945C44.0596 16.5464 44 15.7802 44 15C44 6.71573 50.7157 0 59 0C67.2843 0 74 6.71573 74 15C74 15.7802 73.9404 16.5464 73.8256 17.2945C73.4827 19.5282 74.9892 22 77.2491 22L106 22C107.657 22 109 23.3431 109 25L109 53.7509C109 56.0108 106.528 57.5173 104.294 57.1744C103.546 57.0596 102.78 57 102 57C93.7157 57 87 63.7157 87 72C87 80.2843 93.7157 87 102 87C102.78 87 103.546 86.9404 104.294 86.8256C106.528 86.4827 109 87.9892 109 90.249V119C109 120.657 107.657 122 106 122L77.2491 122C74.9892 122 73.4827 124.472 73.8256 126.706C73.9404 127.454 74 128.22 74 129C74 137.284 67.2843 144 59 144C50.7157 144 44 137.284 44 129C44 128.22 44.0596 127.454 44.1744 126.706C44.5173 124.472 43.0108 122 40.751 122H12C10.3431 122 9 120.657 9 119L9 90.2491C9 87.9892 11.4718 86.4827 13.7055 86.8256C14.4536 86.9404 15.2198 87 16 87C24.2843 87 31 80.2843 31 72C31 63.7157 24.2843 57 16 57C15.2198 57 14.4536 57.0596 13.7055 57.1744C11.4718 57.5173 9 56.0108 9 53.7509L9 25C9 23.3431 10.3431 22 12 22L40.7509 22Z"/>
</mask>
<path fill-rule="evenodd" clip-rule="evenodd" d="M40.7509 22C43.0108 22 44.5173 19.5282 44.1744 17.2945C44.0596 16.5464 44 15.7802 44 15C44 6.71573 50.7157 0 59 0C67.2843 0 74 6.71573 74 15C74 15.7802 73.9404 16.5464 73.8256 17.2945C73.4827 19.5282 74.9892 22 77.2491 22L106 22C107.657 22 109 23.3431 109 25L109 53.7509C109 56.0108 106.528 57.5173 104.294 57.1744C103.546 57.0596 102.78 57 102 57C93.7157 57 87 63.7157 87 72C87 80.2843 93.7157 87 102 87C102.78 87 103.546 86.9404 104.294 86.8256C106.528 86.4827 109 87.9892 109 90.249V119C109 120.657 107.657 122 106 122L77.2491 122C74.9892 122 73.4827 124.472 73.8256 126.706C73.9404 127.454 74 128.22 74 129C74 137.284 67.2843 144 59 144C50.7157 144 44 137.284 44 129C44 128.22 44.0596 127.454 44.1744 126.706C44.5173 124.472 43.0108 122 40.751 122H12C10.3431 122 9 120.657 9 119L9 90.2491C9 87.9892 11.4718 86.4827 13.7055 86.8256C14.4536 86.9404 15.2198 87 16 87C24.2843 87 31 80.2843 31 72C31 63.7157 24.2843 57 16 57C15.2198 57 14.4536 57.0596 13.7055 57.1744C11.4718 57.5173 9 56.0108 9 53.7509L9 25C9 23.3431 10.3431 22 12 22L40.7509 22Z" fill="black"/>
<path d="M13.7055 57.1744L13.5538 56.186L13.7055 57.1744ZM106 122V121V122ZM73.8256 17.2945L74.814 17.4462L73.8256 17.2945ZM77.2491 122V123V122ZM43 15C43 15.8311 43.0635 16.6481 43.186 17.4462L45.1628 17.1428C45.0557 16.4447 45 15.7292 45 15H43ZM59 -1C50.1634 -1 43 6.16345 43 15H45C45 7.26801 51.268 1 59 1V-1ZM75 15C75 6.16344 67.8366 -1 59 -1V1C66.732 1 73 7.26801 73 15H75ZM74.814 17.4462C74.9365 16.6481 75 15.8311 75 15H73C73 15.7292 72.9443 16.4447 72.8372 17.1428L74.814 17.4462ZM106 21L77.2491 21V23L106 23V21ZM110 53.7509L110 25L108 25L108 53.7509H110ZM102 58C102.729 58 103.445 58.0557 104.143 58.1628L104.446 56.186C103.648 56.0635 102.831 56 102 56V58ZM88 72C88 64.268 94.268 58 102 58V56C93.1634 56 86 63.1634 86 72H88ZM102 86C94.268 86 88 79.732 88 72H86C86 80.8366 93.1634 88 102 88V86ZM104.143 85.8372C103.445 85.9443 102.729 86 102 86V88C102.831 88 103.648 87.9365 104.446 87.814L104.143 85.8372ZM110 119V90.249H108V119H110ZM77.2491 123L106 123V121L77.2491 121V123ZM75 129C75 128.169 74.9365 127.352 74.814 126.554L72.8372 126.857C72.9443 127.555 73 128.271 73 129H75ZM59 145C67.8366 145 75 137.837 75 129H73C73 136.732 66.732 143 59 143V145ZM43 129C43 137.837 50.1634 145 59 145V143C51.268 143 45 136.732 45 129H43ZM43.186 126.554C43.0635 127.352 43 128.169 43 129H45C45 128.271 45.0557 127.555 45.1628 126.857L43.186 126.554ZM12 123H40.751V121H12V123ZM8 90.2491L8 119H10L10 90.2491H8ZM16 86C15.2708 86 14.5553 85.9443 13.8572 85.8372L13.5538 87.814C14.3519 87.9365 15.1689 88 16 88V86ZM30 72C30 79.732 23.732 86 16 86V88C24.8366 88 32 80.8366 32 72H30ZM16 58C23.732 58 30 64.268 30 72H32C32 63.1634 24.8366 56 16 56L16 58ZM13.8572 58.1628C14.5553 58.0557 15.2708 58 16 58L16 56C15.1689 56 14.3519 56.0635 13.5538 56.186L13.8572 58.1628ZM8 25L8 53.7509H10L10 25H8ZM40.7509 21L12 21V23L40.7509 23V21ZM10 25C10 23.8954 10.8954 23 12 23V21C9.79086 21 8 22.7909 8 25H10ZM10 90.2491C10 89.516 10.3949 88.857 11.0813 88.3856C11.776 87.9084 12.697 87.6825 13.5538 87.814L13.8572 85.8372C12.4803 85.6258 11.0485 85.9817 9.94894 86.737C8.84101 87.498 8 88.7222 8 90.2491H10ZM13.5538 56.186C12.697 56.3175 11.776 56.0916 11.0813 55.6144C10.3949 55.143 10 54.484 10 53.7509H8C8 55.2778 8.84101 56.502 9.94894 57.263C11.0485 58.0183 12.4803 58.3742 13.8572 58.1628L13.5538 56.186ZM108 119C108 120.105 107.105 121 106 121L106 123C108.209 123 110 121.209 110 119H108ZM104.446 87.814C105.303 87.6825 106.224 87.9084 106.919 88.3856C107.605 88.857 108 89.516 108 90.249H110C110 88.7222 109.159 87.498 108.051 86.737C106.951 85.9817 105.52 85.6258 104.143 85.8372L104.446 87.814ZM45.1628 126.857C45.3742 125.48 45.0183 124.049 44.263 122.949C43.502 121.841 42.2778 121 40.751 121V123C41.484 123 42.143 123.395 42.6144 124.081C43.0916 124.776 43.3175 125.697 43.186 126.554L45.1628 126.857ZM106 23C107.105 23 108 23.8954 108 25L110 25C110 22.7909 108.209 21 106 21V23ZM72.8372 17.1428C72.6258 18.5197 72.9817 19.9515 73.737 21.0511C74.498 22.159 75.7222 23 77.2491 23V21C76.516 21 75.857 20.6051 75.3856 19.9187C74.9084 19.224 74.6825 18.303 74.814 17.4462L72.8372 17.1428ZM12 121C10.8954 121 10 120.105 10 119H8C8 121.209 9.79086 123 12 123V121ZM108 53.7509C108 54.484 107.605 55.143 106.919 55.6144C106.224 56.0916 105.303 56.3175 104.446 56.186L104.143 58.1628C105.52 58.3742 106.951 58.0183 108.051 57.263C109.159 56.502 110 55.2778 110 53.7509H108ZM77.2491 121C75.7222 121 74.498 121.841 73.737 122.949C72.9817 124.049 72.6258 125.48 72.8372 126.857L74.814 126.554C74.6825 125.697 74.9084 124.776 75.3856 124.081C75.857 123.395 76.516 123 77.2491 123V121ZM43.186 17.4462C43.3175 18.303 43.0916 19.224 42.6144 19.9187C42.1429 20.6051 41.484 21 40.7509 21V23C42.2778 23 43.502 22.159 44.263 21.0511C45.0182 19.9515 45.3742 18.5197 45.1628 17.1428L43.186 17.4462Z" fill="black" mask="url(#path-2-inside-1_102_728)"/>
</svg>
