<svg width="118" height="118" viewBox="0 0 118 118" fill="none" xmlns="http://www.w3.org/2000/svg">
<mask id="path-2-inside-1_102_466" fill="white">
<path fill-rule="evenodd" clip-rule="evenodd" d="M104.294 44.1744C106.528 44.5173 109 43.0108 109 40.7509L109 12C109 10.3431 107.657 9 106 9L77.249 9C74.9892 9 73.4827 11.4718 73.8256 13.7055C73.9404 14.4536 74 15.2198 74 16C74 24.2843 67.2843 31 59 31C50.7157 31 44 24.2843 44 16C44 15.2198 44.0596 14.4536 44.1744 13.7055C44.5172 11.4718 43.0108 9.00001 40.7509 9.00001L12 9.00001C10.3431 9.00001 8.99999 10.3432 8.99999 12L8.99999 40.751C8.99999 43.0108 11.4718 44.5173 13.7055 44.1744C14.4536 44.0596 15.2198 44 16 44C24.2843 44 31 50.7157 31 59C31 67.2843 24.2843 74 16 74C15.2198 74 14.4536 73.9404 13.7055 73.8256C11.4718 73.4828 9 74.9892 9 77.2491L9 106C9 107.657 10.3431 109 12 109L106 109C107.657 109 109 107.657 109 106L109 77.2491C109 74.9892 106.528 73.4827 104.294 73.8256C103.546 73.9404 102.78 74 102 74C93.7157 74 87 67.2843 87 59C87 50.7157 93.7157 44 102 44C102.78 44 103.546 44.0596 104.294 44.1744Z"/>
</mask>
<path fill-rule="evenodd" clip-rule="evenodd" d="M104.294 44.1744C106.528 44.5173 109 43.0108 109 40.7509L109 12C109 10.3431 107.657 9 106 9L77.249 9C74.9892 9 73.4827 11.4718 73.8256 13.7055C73.9404 14.4536 74 15.2198 74 16C74 24.2843 67.2843 31 59 31C50.7157 31 44 24.2843 44 16C44 15.2198 44.0596 14.4536 44.1744 13.7055C44.5172 11.4718 43.0108 9.00001 40.7509 9.00001L12 9.00001C10.3431 9.00001 8.99999 10.3432 8.99999 12L8.99999 40.751C8.99999 43.0108 11.4718 44.5173 13.7055 44.1744C14.4536 44.0596 15.2198 44 16 44C24.2843 44 31 50.7157 31 59C31 67.2843 24.2843 74 16 74C15.2198 74 14.4536 73.9404 13.7055 73.8256C11.4718 73.4828 9 74.9892 9 77.2491L9 106C9 107.657 10.3431 109 12 109L106 109C107.657 109 109 107.657 109 106L109 77.2491C109 74.9892 106.528 73.4827 104.294 73.8256C103.546 73.9404 102.78 74 102 74C93.7157 74 87 67.2843 87 59C87 50.7157 93.7157 44 102 44C102.78 44 103.546 44.0596 104.294 44.1744Z" fill="black"/>
<path d="M104.294 73.8256L104.446 74.814L104.294 73.8256ZM12 9.00001L12 8.00001L12 9.00001ZM8.99999 12L9.99999 12L8.99999 12ZM73.8256 13.7055L74.814 13.5538L73.8256 13.7055ZM40.7509 9.00001L40.7509 10L40.7509 9.00001ZM104.294 44.1744L104.446 43.186L104.294 44.1744ZM108 12L108 40.7509L110 40.7509L110 12L108 12ZM77.249 10L106 10L106 8L77.249 8L77.249 10ZM75 16C75 15.1689 74.9365 14.3519 74.814 13.5538L72.8372 13.8572C72.9443 14.5553 73 15.2708 73 16L75 16ZM59 32C67.8365 32 75 24.8366 75 16L73 16C73 23.732 66.732 30 59 30L59 32ZM43 16C43 24.8366 50.1634 32 59 32L59 30C51.268 30 45 23.732 45 16L43 16ZM43.186 13.5538C43.0635 14.3519 43 15.1689 43 16L45 16C45 15.2708 45.0557 14.5553 45.1628 13.8572L43.186 13.5538ZM12 10L40.7509 10L40.7509 8.00001L12 8.00001L12 10ZM9.99999 40.751L9.99999 12L7.99999 12L7.99999 40.751L9.99999 40.751ZM16 43C15.1689 43 14.3519 43.0635 13.5538 43.186L13.8572 45.1628C14.5553 45.0557 15.2708 45 16 45L16 43ZM32 59C32 50.1635 24.8366 43 16 43L16 45C23.732 45 30 51.268 30 59L32 59ZM16 75C24.8366 75 32 67.8366 32 59L30 59C30 66.732 23.732 73 16 73L16 75ZM13.5538 74.814C14.3519 74.9365 15.1689 75 16 75L16 73C15.2708 73 14.5553 72.9443 13.8572 72.8372L13.5538 74.814ZM10 106L10 77.2491L8 77.2491L8 106L10 106ZM106 108L12 108L12 110L106 110L106 108ZM108 77.2491L108 106L110 106L110 77.2491L108 77.2491ZM104.143 72.8372C103.445 72.9443 102.729 73 102 73L102 75C102.831 75 103.648 74.9365 104.446 74.814L104.143 72.8372ZM102 73C94.268 73 88 66.732 88 59L86 59C86 67.8366 93.1634 75 102 75L102 73ZM88 59C88 51.268 94.268 45 102 45L102 43C93.1634 43 86 50.1634 86 59L88 59ZM102 45C102.729 45 103.445 45.0557 104.143 45.1628L104.446 43.186C103.648 43.0635 102.831 43 102 43L102 45ZM110 77.2491C110 75.7222 109.159 74.498 108.051 73.737C106.951 72.9817 105.52 72.6258 104.143 72.8372L104.446 74.814C105.303 74.6825 106.224 74.9084 106.919 75.3856C107.605 75.857 108 76.516 108 77.2491L110 77.2491ZM106 110C108.209 110 110 108.209 110 106L108 106C108 107.105 107.105 108 106 108L106 110ZM7.99999 40.751C7.99999 42.2778 8.841 43.502 9.94893 44.263C11.0485 45.0183 12.4803 45.3742 13.8572 45.1628L13.5538 43.186C12.697 43.3175 11.776 43.0916 11.0813 42.6144C10.3949 42.143 9.99999 41.484 9.99999 40.751L7.99999 40.751ZM12 8.00001C9.79085 8.00001 7.99999 9.79087 7.99999 12L9.99999 12C9.99999 10.8954 10.8954 10 12 10L12 8.00001ZM8 106C8 108.209 9.79086 110 12 110L12 108C10.8954 108 10 107.105 10 106L8 106ZM77.249 8C75.7222 8 74.498 8.84101 73.737 9.94894C72.9817 11.0485 72.6258 12.4803 72.8372 13.8572L74.814 13.5538C74.6825 12.697 74.9084 11.776 75.3856 11.0813C75.857 10.3949 76.516 10 77.249 10L77.249 8ZM45.1628 13.8572C45.3742 12.4803 45.0182 11.0485 44.263 9.94894C43.502 8.84101 42.2778 8.00001 40.7509 8.00001L40.7509 10C41.484 10 42.1429 10.3949 42.6144 11.0813C43.0916 11.776 43.3175 12.697 43.186 13.5538L45.1628 13.8572ZM13.8572 72.8372C12.4803 72.6258 11.0485 72.9818 9.94893 73.737C8.841 74.498 8 75.7222 8 77.2491L10 77.2491C10 76.516 10.3949 75.8571 11.0813 75.3856C11.776 74.9084 12.697 74.6825 13.5538 74.814L13.8572 72.8372ZM108 40.7509C108 41.484 107.605 42.143 106.919 42.6144C106.224 43.0916 105.303 43.3175 104.446 43.186L104.143 45.1628C105.52 45.3742 106.951 45.0183 108.051 44.263C109.159 43.502 110 42.2778 110 40.7509L108 40.7509ZM110 12C110 9.79086 108.209 8 106 8L106 10C107.105 10 108 10.8954 108 12L110 12Z" fill="black" mask="url(#path-2-inside-1_102_466)"/>
</svg>
