<svg width="131" height="118" viewBox="0 0 131 118" fill="none" xmlns="http://www.w3.org/2000/svg">
<mask id="path-2-inside-1_102_463" fill="white">
<path fill-rule="evenodd" clip-rule="evenodd" d="M86.8256 13.7055C86.4827 11.4718 87.9892 9 90.2491 9L119 9C120.657 9 122 10.3431 122 12L122 106C122 107.657 120.657 109 119 109L25 109C23.3431 109 22 107.657 22 106L22 77.249C22 74.9892 19.5282 73.4827 17.2945 73.8256C16.5464 73.9404 15.7802 74 15 74C6.71573 74 -2.54769e-06 67.2843 -2.18557e-06 59C-1.82345e-06 50.7157 6.71573 44 15 44C15.7802 44 16.5464 44.0596 17.2945 44.1744C19.5282 44.5173 22 43.0108 22 40.7509L22 12C22 10.3431 23.3431 9 25 9L53.7509 9C56.0108 9 57.5173 11.4718 57.1744 13.7055C57.0596 14.4536 57 15.2198 57 16C57 24.2843 63.7157 31 72 31C80.2843 31 87 24.2843 87 16C87 15.2198 86.9404 14.4536 86.8256 13.7055Z"/>
</mask>
<path fill-rule="evenodd" clip-rule="evenodd" d="M86.8256 13.7055C86.4827 11.4718 87.9892 9 90.2491 9L119 9C120.657 9 122 10.3431 122 12L122 106C122 107.657 120.657 109 119 109L25 109C23.3431 109 22 107.657 22 106L22 77.249C22 74.9892 19.5282 73.4827 17.2945 73.8256C16.5464 73.9404 15.7802 74 15 74C6.71573 74 -2.54769e-06 67.2843 -2.18557e-06 59C-1.82345e-06 50.7157 6.71573 44 15 44C15.7802 44 16.5464 44.0596 17.2945 44.1744C19.5282 44.5173 22 43.0108 22 40.7509L22 12C22 10.3431 23.3431 9 25 9L53.7509 9C56.0108 9 57.5173 11.4718 57.1744 13.7055C57.0596 14.4536 57 15.2198 57 16C57 24.2843 63.7157 31 72 31C80.2843 31 87 24.2843 87 16C87 15.2198 86.9404 14.4536 86.8256 13.7055Z" fill="black"/>
<path d="M22 77.249L23 77.249L22 77.249ZM22 106L21 106L22 106ZM86.8256 13.7055L87.814 13.5538L86.8256 13.7055ZM119 8L90.2491 8L90.2491 10L119 10L119 8ZM123 106L123 12L121 12L121 106L123 106ZM25 110L119 110L119 108L25 108L25 110ZM21 77.249L21 106L23 106L23 77.249L21 77.249ZM15 75C15.8311 75 16.6481 74.9365 17.4462 74.814L17.1428 72.8372C16.4447 72.9443 15.7292 73 15 73L15 75ZM-1 59C-1 67.8366 6.16344 75 15 75L15 73C7.26801 73 0.999997 66.732 0.999998 59L-1 59ZM15 43C6.16344 43 -1 50.1634 -1 59L0.999998 59C0.999998 51.268 7.26801 45 15 45L15 43ZM17.4462 43.186C16.6481 43.0635 15.8311 43 15 43L15 45C15.7292 45 16.4447 45.0557 17.1428 45.1628L17.4462 43.186ZM21 12L21 40.7509L23 40.7509L23 12L21 12ZM53.7509 8L25 8L25 10L53.7509 10L53.7509 8ZM58 16C58 15.2708 58.0557 14.5553 58.1628 13.8572L56.186 13.5538C56.0635 14.3519 56 15.1689 56 16L58 16ZM72 30C64.268 30 58 23.732 58 16L56 16C56 24.8366 63.1634 32 72 32L72 30ZM86 16C86 23.732 79.732 30 72 30L72 32C80.8366 32 88 24.8366 88 16L86 16ZM85.8372 13.8572C85.9443 14.5553 86 15.2708 86 16L88 16C88 15.1689 87.9365 14.3519 87.814 13.5538L85.8372 13.8572ZM53.7509 10C54.484 10 55.143 10.3949 55.6144 11.0813C56.0916 11.776 56.3175 12.697 56.186 13.5538L58.1628 13.8572C58.3742 12.4803 58.0183 11.0485 57.263 9.94894C56.502 8.841 55.2778 8 53.7509 8L53.7509 10ZM23 12C23 10.8954 23.8954 10 25 10L25 8C22.7909 8 21 9.79086 21 12L23 12ZM17.1428 45.1628C18.5197 45.3742 19.9515 45.0183 21.0511 44.263C22.159 43.502 23 42.2778 23 40.7509L21 40.7509C21 41.484 20.6051 42.143 19.9187 42.6144C19.224 43.0916 18.303 43.3175 17.4462 43.186L17.1428 45.1628ZM23 77.249C23 75.7222 22.159 74.498 21.0511 73.737C19.9515 72.9817 18.5197 72.6258 17.1428 72.8372L17.4462 74.814C18.303 74.6825 19.224 74.9084 19.9187 75.3856C20.6051 75.857 21 76.516 21 77.249L23 77.249ZM25 108C23.8954 108 23 107.105 23 106L21 106C21 108.209 22.7909 110 25 110L25 108ZM121 106C121 107.105 120.105 108 119 108L119 110C121.209 110 123 108.209 123 106L121 106ZM90.2491 8C88.7222 8 87.498 8.84101 86.737 9.94894C85.9817 11.0485 85.6258 12.4803 85.8372 13.8572L87.814 13.5538C87.6825 12.697 87.9084 11.776 88.3856 11.0813C88.857 10.3949 89.516 10 90.2491 10L90.2491 8ZM119 10C120.105 10 121 10.8954 121 12L123 12C123 9.79086 121.209 8 119 8L119 10Z" fill="black" mask="url(#path-2-inside-1_102_463)"/>
</svg>
