<svg width="131" height="131" viewBox="0 0 131 131" fill="none" xmlns="http://www.w3.org/2000/svg">
<mask id="path-2-inside-1_102_248" fill="white">
<path fill-rule="evenodd" clip-rule="evenodd" d="M44.1744 13.7055C44.5173 11.4718 43.0108 9 40.7509 9L12 9C10.3431 9 9 10.3431 9 12L9 106C9 107.657 10.3431 109 12 109H40.7509C43.0108 109 44.5173 111.472 44.1744 113.706C44.0596 114.454 44 115.22 44 116C44 124.284 50.7157 131 59 131C67.2843 131 74 124.284 74 116C74 115.22 73.9404 114.454 73.8256 113.706C73.4827 111.472 74.9892 109 77.249 109H106C107.657 109 109 107.657 109 106V77.2491C109 74.9892 111.472 73.4827 113.706 73.8256C114.454 73.9404 115.22 74 116 74C124.284 74 131 67.2843 131 59C131 50.7157 124.284 44 116 44C115.22 44 114.454 44.0596 113.706 44.1744C111.472 44.5173 109 43.0108 109 40.751V12C109 10.3431 107.657 9 106 9L77.2491 9C74.9892 9 73.4828 11.4718 73.8256 13.7055C73.9404 14.4536 74 15.2198 74 16C74 24.2843 67.2843 31 59 31C50.7157 31 44 24.2843 44 16C44 15.2198 44.0596 14.4536 44.1744 13.7055Z"/>
</mask>
<path fill-rule="evenodd" clip-rule="evenodd" d="M44.1744 13.7055C44.5173 11.4718 43.0108 9 40.7509 9L12 9C10.3431 9 9 10.3431 9 12L9 106C9 107.657 10.3431 109 12 109H40.7509C43.0108 109 44.5173 111.472 44.1744 113.706C44.0596 114.454 44 115.22 44 116C44 124.284 50.7157 131 59 131C67.2843 131 74 124.284 74 116C74 115.22 73.9404 114.454 73.8256 113.706C73.4827 111.472 74.9892 109 77.249 109H106C107.657 109 109 107.657 109 106V77.2491C109 74.9892 111.472 73.4827 113.706 73.8256C114.454 73.9404 115.22 74 116 74C124.284 74 131 67.2843 131 59C131 50.7157 124.284 44 116 44C115.22 44 114.454 44.0596 113.706 44.1744C111.472 44.5173 109 43.0108 109 40.751V12C109 10.3431 107.657 9 106 9L77.2491 9C74.9892 9 73.4828 11.4718 73.8256 13.7055C73.9404 14.4536 74 15.2198 74 16C74 24.2843 67.2843 31 59 31C50.7157 31 44 24.2843 44 16C44 15.2198 44.0596 14.4536 44.1744 13.7055Z" fill="black"/>
<path d="M59 31L59 32L59 32L59 31ZM73.8256 13.7055L74.814 13.5538L73.8256 13.7055ZM113.706 73.8256L113.554 74.814L113.706 73.8256ZM44.1744 113.706L43.186 113.554L44.1744 113.706ZM12 10L40.7509 10V8L12 8V10ZM10 106L10 12H8L8 106H10ZM40.7509 108H12V110H40.7509L40.7509 108ZM45 116C45 115.271 45.0557 114.555 45.1628 113.857L43.186 113.554C43.0635 114.352 43 115.169 43 116H45ZM59 130C51.268 130 45 123.732 45 116H43C43 124.837 50.1634 132 59 132V130ZM73 116C73 123.732 66.732 130 59 130V132C67.8366 132 75 124.837 75 116H73ZM72.8372 113.857C72.9443 114.555 73 115.271 73 116H75C75 115.169 74.9365 114.352 74.814 113.554L72.8372 113.857ZM106 108H77.249V110H106V108ZM108 77.2491V106H110V77.2491H108ZM116 73C115.271 73 114.555 72.9443 113.857 72.8372L113.554 74.814C114.352 74.9365 115.169 75 116 75V73ZM130 59C130 66.732 123.732 73 116 73V75C124.837 75 132 67.8366 132 59H130ZM116 45C123.732 45 130 51.268 130 59H132C132 50.1634 124.837 43 116 43V45ZM113.857 45.1628C114.555 45.0557 115.271 45 116 45V43C115.169 43 114.352 43.0635 113.554 43.186L113.857 45.1628ZM108 12V40.751L110 40.751V12H108ZM77.2491 10L106 10V8L77.2491 8V10ZM72.8372 13.8573C72.9443 14.5553 73 15.2708 73 16H75C75 15.1689 74.9365 14.3519 74.814 13.5538L72.8372 13.8573ZM73 16C73 23.732 66.732 30 59 30L59 32C67.8366 32 75 24.8366 75 16H73ZM59 30C51.268 30 45 23.732 45 16H43C43 24.8366 50.1634 32 59 32L59 30ZM45 16C45 15.2708 45.0557 14.5553 45.1628 13.8572L43.186 13.5538C43.0635 14.3519 43 15.1689 43 16H45ZM77.2491 8C75.7222 8 74.498 8.84101 73.737 9.94894C72.9818 11.0485 72.6258 12.4803 72.8372 13.8573L74.814 13.5538C74.6825 12.697 74.9084 11.776 75.3856 11.0813C75.8571 10.3949 76.516 10 77.2491 10V8ZM110 77.2491C110 76.516 110.395 75.857 111.081 75.3856C111.776 74.9084 112.697 74.6825 113.554 74.814L113.857 72.8372C112.48 72.6258 111.049 72.9817 109.949 73.737C108.841 74.498 108 75.7222 108 77.2491H110ZM106 110C108.209 110 110 108.209 110 106H108C108 107.105 107.105 108 106 108V110ZM110 12C110 9.79086 108.209 8 106 8V10C107.105 10 108 10.8954 108 12H110ZM40.7509 110C41.484 110 42.143 110.395 42.6144 111.081C43.0916 111.776 43.3175 112.697 43.186 113.554L45.1628 113.857C45.3742 112.48 45.0183 111.049 44.263 109.949C43.502 108.841 42.2778 108 40.7509 108L40.7509 110ZM74.814 113.554C74.6825 112.697 74.9084 111.776 75.3856 111.081C75.857 110.395 76.516 110 77.249 110V108C75.7222 108 74.498 108.841 73.737 109.949C72.9817 111.049 72.6258 112.48 72.8372 113.857L74.814 113.554ZM113.554 43.186C112.697 43.3175 111.776 43.0916 111.081 42.6144C110.395 42.143 110 41.484 110 40.751L108 40.751C108 42.2778 108.841 43.502 109.949 44.263C111.049 45.0183 112.48 45.3742 113.857 45.1628L113.554 43.186ZM8 106C8 108.209 9.79086 110 12 110V108C10.8954 108 10 107.105 10 106H8ZM40.7509 10C41.484 10 42.143 10.3949 42.6144 11.0813C43.0916 11.776 43.3175 12.697 43.186 13.5538L45.1628 13.8572C45.3742 12.4803 45.0183 11.0485 44.263 9.94894C43.502 8.84101 42.2778 8 40.7509 8V10ZM12 8C9.79086 8 8 9.79086 8 12H10C10 10.8954 10.8954 10 12 10V8Z" fill="black" mask="url(#path-2-inside-1_102_248)"/>
</svg>
